<svg id="visual" viewBox="0 0 900 600" width="900" height="600" xmlns="http://www.w3.org/2000/svg" xmlns:xlink="http://www.w3.org/1999/xlink" version="1.1"><rect x="0" y="0" width="900" height="600" fill="#9a3412"></rect><g transform="translate(300.2607735164111 368.669799767368)"><path d="M183.4 -245.3C290.4 -174.7 466.2 -191.6 521.7 -141.1C577.3 -90.5 512.6 27.5 422.5 85.5C332.3 143.4 216.7 141.3 142.1 173.5C67.4 205.8 33.7 272.4 -34 319.2C-101.7 366 -203.4 392.9 -232.9 346C-262.3 299.1 -219.6 178.3 -195.5 99.6C-171.4 20.9 -166 -15.6 -176.6 -80.3C-187.1 -145.1 -213.8 -238 -187 -334.6C-160.3 -431.3 -80.1 -531.6 -21 -502.8C38.2 -473.9 76.4 -315.8 183.4 -245.3" fill="none" stroke="#ffedd5" stroke-width="50"></path></g></svg>