<svg id="visual" viewBox="0 0 900 600" width="900" height="600" xmlns="http://www.w3.org/2000/svg" xmlns:xlink="http://www.w3.org/1999/xlink" version="1.1"><rect x="0" y="0" width="900" height="600" fill="#1c1917"></rect><g transform="translate(409.24438711807255 304.3013632034755)"><path d="M246.6 -413.1C318.2 -385.8 373.9 -316.9 388.6 -241.1C403.4 -165.3 377.2 -82.7 351.3 -14.9C325.5 52.8 300 105.7 267.8 151.1C235.5 196.6 196.5 234.7 150.8 293.1C105 351.5 52.5 430.3 6.8 418.4C-38.8 406.6 -77.7 304.2 -142 256.5C-206.4 208.9 -296.3 215.9 -309.6 182.3C-322.8 148.7 -259.4 74.3 -223.5 20.8C-187.5 -32.8 -179 -65.6 -178.3 -121.1C-177.7 -176.5 -184.8 -254.5 -156.4 -306.8C-128 -359 -64 -385.5 11.7 -405.9C87.5 -426.2 175 -440.4 246.6 -413.1" fill="none" stroke="#ef4444" stroke-width="40"></path></g></svg>