<svg id="visual" viewBox="0 0 900 600" width="900" height="600" xmlns="http://www.w3.org/2000/svg" xmlns:xlink="http://www.w3.org/1999/xlink" version="1.1"><rect x="0" y="0" width="900" height="600" fill="#22c55e"></rect><g transform="translate(558.8920654027179 235.1218797614549)"><path d="M127.8 -227.6C154.9 -156.2 158.8 -104.5 178.1 -55.4C197.5 -6.3 232.4 40.3 221.8 71.8C211.2 103.4 155.2 120 110.7 218C66.1 316 33.1 495.5 -10.9 510.5C-54.9 525.5 -109.7 376 -183.6 287.5C-257.5 199 -350.3 171.5 -400.6 108.5C-450.8 45.5 -458.4 -52.9 -403.4 -102.8C-348.3 -152.7 -230.6 -154 -152.9 -209C-75.2 -263.9 -37.6 -372.4 6.4 -381.2C50.4 -390 100.7 -298.9 127.8 -227.6" fill="none" stroke="#292524" stroke-width="40"></path></g></svg>