<svg id="visual" viewBox="0 0 1920 1080" width="1920" height="1080" xmlns="http://www.w3.org/2000/svg" xmlns:xlink="http://www.w3.org/1999/xlink" version="1.1"><rect width="1920" height="1080" fill="#f4f4f5"></rect><g><g transform="translate(1105 50)"><path d="M0 -145.7L138.5 -45L85.6 117.8L-85.6 117.8L-138.5 -45Z" fill="none" stroke="#ef4444" stroke-width="1"></path></g><g transform="translate(1630 712)"><path d="M0 -88L83.7 -27.2L51.7 71.2L-51.7 71.2L-83.7 -27.2Z" fill="none" stroke="#ef4444" stroke-width="1"></path></g><g transform="translate(1786 1063)"><path d="M0 -93L88.4 -28.7L54.7 75.2L-54.7 75.2L-88.4 -28.7Z" fill="none" stroke="#ef4444" stroke-width="1"></path></g><g transform="translate(280 482)"><path d="M0 -103L98 -31.8L60.5 83.3L-60.5 83.3L-98 -31.8Z" fill="none" stroke="#ef4444" stroke-width="1"></path></g><g transform="translate(422 99)"><path d="M0 -115L109.4 -35.5L67.6 93L-67.6 93L-109.4 -35.5Z" fill="none" stroke="#ef4444" stroke-width="1"></path></g><g transform="translate(1415 1024)"><path d="M0 -60L57.1 -18.5L35.3 48.5L-35.3 48.5L-57.1 -18.5Z" fill="none" stroke="#ef4444" stroke-width="1"></path></g></g></svg>