<svg id="visual" viewBox="0 0 1920 1080" width="1920" height="1080" xmlns="http://www.w3.org/2000/svg" xmlns:xlink="http://www.w3.org/1999/xlink" version="1.1"><rect x="0" y="0" width="1920" height="1080" fill="#f4f4f5"></rect><g fill="none" stroke="#ef4444" stroke-width="1"><circle r="24" cx="853" cy="639"></circle><circle r="7" cx="1420" cy="1066"></circle><circle r="20" cx="1569" cy="911"></circle><circle r="12" cx="1308" cy="501"></circle><circle r="20" cx="1473" cy="56"></circle><circle r="12" cx="1519" cy="485"></circle><circle r="15" cx="355" cy="315"></circle><circle r="13" cx="1319" cy="234"></circle><circle r="6" cx="1155" cy="284"></circle><circle r="17" cx="1852" cy="367"></circle><circle r="10" cx="1630" cy="374"></circle><circle r="7" cx="1482" cy="1067"></circle><circle r="17" cx="706" cy="986"></circle><circle r="13" cx="427" cy="511"></circle><circle r="9" cx="278" cy="593"></circle><circle r="15" cx="21" cy="442"></circle><circle r="15" cx="931" cy="615"></circle><circle r="14" cx="1608" cy="950"></circle><circle r="7" cx="1201" cy="506"></circle><circle r="17" cx="940" cy="169"></circle><circle r="6" cx="1830" cy="123"></circle><circle r="17" cx="1759" cy="392"></circle><circle r="12" cx="1879" cy="816"></circle><circle r="14" cx="151" cy="65"></circle><circle r="19" cx="304" cy="286"></circle><circle r="20" cx="796" cy="105"></circle><circle r="11" cx="1403" cy="557"></circle><circle r="15" cx="939" cy="236"></circle><circle r="9" cx="1547" cy="740"></circle><circle r="17" cx="462" cy="589"></circle><circle r="16" cx="447" cy="998"></circle><circle r="12" cx="1847" cy="909"></circle><circle r="9" cx="1360" cy="348"></circle><circle r="6" cx="1428" cy="231"></circle><circle r="12" cx="562" cy="318"></circle><circle r="13" cx="99" cy="276"></circle><circle r="14" cx="8" cy="379"></circle><circle r="13" cx="791" cy="295"></circle></g></svg>