<svg id="visual" viewBox="0 0 900 600" width="900" height="600" xmlns="http://www.w3.org/2000/svg" xmlns:xlink="http://www.w3.org/1999/xlink" version="1.1"><rect x="0" y="0" width="900" height="600" fill="#6dffa3"></rect><g fill="#22c55e"><circle r="72" cx="256" cy="308"></circle><circle r="50" cx="43" cy="348"></circle><circle r="50" cx="410" cy="419"></circle><circle r="65" cx="414" cy="73"></circle><circle r="65" cx="801" cy="218"></circle><circle r="64" cx="807" cy="400"></circle><circle r="68" cx="420" cy="567"></circle><circle r="65" cx="557" cy="197"></circle><circle r="63" cx="600" cy="445"></circle><circle r="56" cx="36" cy="531"></circle><circle r="53" cx="17" cy="119"></circle><circle r="57" cx="647" cy="32"></circle><circle r="65" cx="886" cy="15"></circle><circle r="68" cx="793" cy="560"></circle><circle r="51" cx="222" cy="105"></circle><circle r="70" cx="636" cy="594"></circle><circle r="60" cx="245" cy="567"></circle><circle r="49" cx="402" cy="218"></circle><circle r="50" cx="127" cy="225"></circle><circle r="65" cx="171" cy="436"></circle></g></svg>