<svg id="visual" viewBox="0 0 900 600" width="900" height="600" xmlns="http://www.w3.org/2000/svg" xmlns:xlink="http://www.w3.org/1999/xlink" version="1.1"><rect x="0" y="0" width="900" height="600" fill="#1c1917"></rect><g fill="#ef4444"><circle r="75" cx="798" cy="81"></circle><circle r="24" cx="224" cy="485"></circle><circle r="24" cx="825" cy="486"></circle><circle r="43" cx="164" cy="276"></circle><circle r="65" cx="336" cy="19"></circle><circle r="35" cx="433" cy="449"></circle><circle r="57" cx="656" cy="540"></circle><circle r="65" cx="737" cy="327"></circle><circle r="61" cx="511" cy="275"></circle><circle r="57" cx="624" cy="92"></circle><circle r="31" cx="381" cy="597"></circle><circle r="41" cx="142" cy="66"></circle><circle r="61" cx="323" cy="323"></circle><circle r="24" cx="887" cy="323"></circle><circle r="64" cx="34" cy="544"></circle><circle r="39" cx="8" cy="140"></circle><circle r="63" cx="21" cy="317"></circle><circle r="30" cx="375" cy="179"></circle></g></svg>