<svg id="visual" viewBox="0 0 900 600" width="900" height="600" xmlns="http://www.w3.org/2000/svg" xmlns:xlink="http://www.w3.org/1999/xlink" version="1.1"><rect x="0" y="0" width="900" height="600" fill="#292524"></rect><g fill="#f97316"><circle r="72" cx="362" cy="237"></circle><circle r="50" cx="123" cy="175"></circle><circle r="51" cx="499" cy="4"></circle><circle r="53" cx="637" cy="207"></circle><circle r="56" cx="128" cy="451"></circle><circle r="64" cx="518" cy="486"></circle><circle r="64" cx="746" cy="303"></circle><circle r="55" cx="521" cy="330"></circle><circle r="54" cx="800" cy="131"></circle><circle r="54" cx="248" cy="24"></circle><circle r="64" cx="15" cy="50"></circle><circle r="70" cx="808" cy="483"></circle><circle r="65" cx="259" cy="561"></circle><circle r="53" cx="271" cy="393"></circle><circle r="63" cx="11" cy="335"></circle><circle r="54" cx="90" cy="598"></circle><circle r="55" cx="899" cy="296"></circle><circle r="50" cx="657" cy="50"></circle><circle r="59" cx="886" cy="8"></circle><circle r="67" cx="408" cy="593"></circle><circle r="50" cx="664" cy="525"></circle><circle r="70" cx="499" cy="165"></circle></g></svg>