<?xml version="1.0" encoding="utf-8"?>
<!-- Generator: Adobe Illustrator 24.0.0, SVG Export Plug-In . SVG Version: 6.00 Build 0)  -->
<svg version="1.1" id="Layer_1" xmlns="http://www.w3.org/2000/svg" xmlns:xlink="http://www.w3.org/1999/xlink" x="0px" y="0px"
	 viewBox="0 0 823.2 735.5" style="enable-background:new 0 0 823.2 735.5;" xml:space="preserve">
<style type="text/css">
	.st0{fill:#F2F2F2;}
	.st1{fill:#FFFFFF;}
	.st2{fill:#06B6D4;}
	.st3{fill:#E6E6E6;}
	.st4{fill:#DCF3F4;}
	.st5{fill:#262626;}
	.st6{fill:none;stroke:#262626;stroke-miterlimit:16;}
	.st7{display:none;fill:#3F3D56;}
</style>
<path class="st0" d="M770.3,400.7L181.1,652.8c-8.4,3.6-18.1-0.3-21.7-8.7L4,280.8c-2.6-6.1,0.2-13.2,6.4-15.9L607.5,9.5
	c6.2-2.7,13.5,0.2,16.1,6.5L779,379.1C782.6,387.5,778.7,397.2,770.3,400.7z"/>
<path class="st1" d="M743.1,389.7L194,624.7c-8,3.4-17.2,0.1-20.4-7.4L38.2,300.9c-2.4-5.6,0.5-12.2,6.5-14.8L601.1,48
	c6.1-2.6,13-0.1,15.4,5.6l135.3,316.2C755,377.4,751.1,386.3,743.1,389.7z"/>
<path class="st2" d="M624.2,17.8L4.6,282.8l-3.3-7.7c-3.6-8.4,0.3-18.1,8.7-21.7l589.1-252c8.4-3.6,18.1,0.3,21.7,8.7L624.2,17.8z"
	/>
<circle class="st1" cx="27.4" cy="259.5" r="4.3"/>
<circle class="st1" cx="42.4" cy="253.1" r="4.3"/>
<circle class="st1" cx="57.3" cy="246.7" r="4.3"/>
<circle class="st1" cx="72.9" cy="240.1" r="4.3"/>
<path class="st0" d="M303.9,363.8l-73.2,31.3c-8.4,3.6-18.1-0.3-21.7-8.7l-40.4-94.5c-3.6-8.4,0.3-18.1,8.7-21.7l73.2-31.3
	c8.4-3.6,18.1,0.3,21.7,8.7l40.4,94.5C316.1,350.5,312.3,360.2,303.9,363.8z"/>
<path class="st0" d="M427.8,310.8l-73.2,31.3c-8.4,3.6-18.1-0.3-21.7-8.7l-40.4-94.5c-3.6-8.4,0.3-18.1,8.7-21.7l73.2-31.3
	c8.4-3.6,18.1,0.3,21.7,8.7l40.4,94.5C440,297.5,436.2,307.2,427.8,310.8z"/>
<path class="st0" d="M551.7,257.8l-73.2,31.3c-8.4,3.6-18.1-0.3-21.7-8.7l-40.4-94.5c-3.6-8.4,0.3-18.1,8.7-21.7l73.2-31.3
	c8.4-3.6,18.1,0.3,21.7,8.7l40.4,94.5C564,244.5,560.1,254.2,551.7,257.8z"/>
<path class="st0" d="M366.4,510l-73.2,31.3c-8.4,3.6-18.1-0.3-21.7-8.7l-40.4-94.5c-3.6-8.4,0.3-18.1,8.7-21.7l73.2-31.3
	c8.4-3.6,18.1,0.3,21.7,8.7l40.4,94.5C378.7,496.7,374.8,506.4,366.4,510z"/>
<path class="st0" d="M490.3,457l-73.2,31.3c-8.4,3.6-18.1-0.3-21.7-8.7L355,385.1c-3.6-8.4,0.3-18.1,8.7-21.7l73.2-31.3
	c8.4-3.6,18.1,0.3,21.7,8.7l40.4,94.5C502.6,443.7,498.7,453.4,490.3,457z"/>
<path class="st0" d="M614.2,403.9L541,435.3c-8.4,3.6-18.1-0.3-21.7-8.7l-40.4-94.5c-3.6-8.4,0.3-18.1,8.7-21.7l73.2-31.3
	c8.4-3.6,18.1,0.3,21.7,8.7l40.4,94.5C626.5,390.7,622.6,400.3,614.2,403.9z"/>
<path class="st3" d="M806.7,735.5H165.9c-9.1,0-16.5-7.4-16.5-16.5V323.9c0-6.7,5.4-12.1,12.1-12.1h649.5c6.8,0,12.3,5.5,12.3,12.3
	V719C823.2,728.1,815.8,735.5,806.7,735.5z"/>
<path class="st1" d="M786,714.7H188.8c-8.8,0-15.9-6.7-15.9-14.9V355.7c0-6.1,5.3-11,11.8-11h605.3c6.6,0,12,5,12,11.2v343.9
	C801.9,708,794.8,714.7,786,714.7z"/>
<path class="st2" d="M823,325.9H149.2v-8.4c0-9.1,7.4-16.5,16.6-16.5h640.7c9.1,0,16.5,7.4,16.6,16.5V325.9z"/>
<circle class="st1" cx="179.3" cy="313.5" r="4.3"/>
<circle class="st1" cx="195.5" cy="313.5" r="4.3"/>
<circle class="st1" cx="211.8" cy="313.5" r="4.3"/>
<circle class="st1" cx="228.5" cy="313.5" r="4.3"/>
<path class="st3" d="M463.7,453.3h174.5c7,0,12.7,5.7,12.7,12.7v0c0,7-5.7,12.7-12.7,12.7H463.7c-7,0-12.7-5.7-12.7-12.7v0
	C451,459,456.7,453.3,463.7,453.3z"/>
<path class="st3" d="M463.7,580.8h174.5c7,0,12.7,5.7,12.7,12.7v0c0,7-5.7,12.7-12.7,12.7H463.7c-7,0-12.7-5.7-12.7-12.7v0
	C451,586.5,456.7,580.8,463.7,580.8z"/>
<path class="st3" d="M469.9,510.1h271.1c10.9,0,19.6,8.8,19.6,19.6v0c0,10.9-8.8,19.6-19.6,19.6H469.9c-10.9,0-19.6-8.8-19.6-19.6v0
	C450.2,518.9,459,510.1,469.9,510.1z"/>
<path class="st1" d="M423.6,529.7c0,60.8-49.2,110-110,110s-110-49.2-110-110s49.2-110,110-110C374.3,419.7,423.6,469,423.6,529.7z"
	/>
<g>
	<g>
		<circle class="st4" cx="313.6" cy="542.6" r="114.9"/>
		<path class="st5" d="M313.6,429.7c30.2,0,58.5,11.7,79.9,33.1c21.3,21.3,33.1,49.7,33.1,79.9c0,30.2-11.7,58.5-33.1,79.9
			c-21.3,21.3-49.7,33.1-79.9,33.1s-58.5-11.7-79.9-33.1c-21.3-21.3-33.1-49.7-33.1-79.9c0-30.2,11.7-58.5,33.1-79.9
			C255.1,441.4,283.4,429.7,313.6,429.7 M313.6,425.7c-64.6,0-116.9,52.4-116.9,116.9S249,659.6,313.6,659.6s116.9-52.4,116.9-116.9
			S378.2,425.7,313.6,425.7L313.6,425.7z"/>
	</g>
	<g>
		<path class="st5" d="M367.6,643.8c-15.5-39.5-30.1-10.1-40.8-29l0,0c-5.6,2.6-21.9,1.4-27.9-0.3c-12.7,19.5-23.7-10-39,29.3
			C294.7,664.2,330.6,665.2,367.6,643.8z"/>
		<g>
			<path class="st5" d="M369,643.4c-3.4-8.6-8.3-19.7-18-22.6c-2.8-0.8-5.6-0.8-8.5-0.6c-1.3,0.1-2.6,0.2-3.9,0.2
				c-1.3,0-2.4,0-3.5-0.3c-3.2-0.7-5.4-3.2-7.1-6.2c-0.4-0.8-1.3-0.9-2.1-0.5c-1.6,0.7-3.6,0.9-5.4,1.1c-2.6,0.2-5.2,0.2-7.8,0.2
				c-4.5-0.2-9.2-0.5-13.6-1.7c-0.7-0.2-1.3,0.1-1.7,0.7c-1.7,2.6-4.1,5.2-6.9,6.2c-2.2,0.7-4.4,0.6-6.9,0.5
				c-2.6-0.2-5.2-0.3-7.7,0.3c-3.2,0.8-5.9,2.7-8.1,5.1c-4.5,5-7.2,11.4-9.7,17.6c-0.2,0.6,0.2,1.4,0.7,1.7c12.9,7.5,27.1,13,42,15
				c14.4,1.9,29,0.4,42.7-4c8.6-2.7,16.8-6.6,24.6-11.1c1.7-1,0.2-3.6-1.5-2.6c-13,7.5-27.3,13.1-42.3,14.8
				c-13.8,1.6-27.7,0-40.9-4.3c-8-2.6-15.7-6.3-23-10.5c0.2,0.6,0.5,1.1,0.7,1.7c2.1-5.5,4.6-11.2,8.5-15.8c2-2.4,4.5-4.3,7.4-4.9
				c2.1-0.5,4.7-0.2,7-0.1c2.5,0.2,5,0.2,7.4-0.7c3.7-1.3,6.4-4.3,8.6-7.5c-0.6,0.2-1.1,0.5-1.7,0.7c4.7,1.3,9.8,1.6,14.7,1.8
				c4.7,0.1,10,0.3,14.4-1.7c-0.7-0.2-1.4-0.4-2.1-0.5c1.7,3,4,5.7,7.2,7c2.4,1,5,1,7.5,0.9c2.6-0.2,5.5-0.5,7.8-0.2
				c3.1,0.4,5.8,1.8,8.1,4c4.8,4.5,7.6,10.9,10,17C366.8,646,369.7,645.2,369,643.4z"/>
		</g>
	</g>
</g>
<path class="st2" d="M364.4,548.5c-1.2,70.4-105.8,70.3-107,0C258.6,478.2,363.2,478.2,364.4,548.5z"/>
<path class="st6" d="M318.3,547.2c1.7,1.6,3.2,3.5,4.3,5.6c0.3,0.5,0.5,1.1,0.4,1.6c-0.2,1.1-1.5,1.6-2.6,1.8
	c-2.9,0.5-5.9,0.8-8.8,0.8"/>
<path class="st6" d="M292.8,565.8c1,3.7,3.6,7,6.9,9c3.3,2,7.4,2.6,11.2,1.8"/>
<path class="st6" d="M293.3,536.3c3.4-0.8,7.1-0.9,10.5-0.2"/>
<path class="st6" d="M324.4,536.7c2.4-0.9,5-0.9,7.5-0.9c0.9,0,1.8,0,2.7,0"/>
<path class="st7" d="M313.6,642.7c-62.4-0.1-112.9-50.6-112.8-113s50.6-112.9,113-112.8c62.4,0.1,112.9,50.6,112.8,113
	c0,48.9-31.5,92.2-78,107.3C337.3,640.9,325.5,642.7,313.6,642.7z M313.6,422.7c-59.1,0-107,47.9-107,107c0,59.1,47.9,107,107,107
	c59.1,0,107-47.9,107-107c0,0,0,0,0,0C420.5,470.6,372.7,422.8,313.6,422.7L313.6,422.7z"/>
<g>
	<g>
		<path class="st5" d="M276.4,525.1c-6.4-1-11.5-5.5-14.2-11.3c-2.8-6-2.8-12.9,0.5-18.7c3.4-5.9,9.4-10,16-11.5
			c3.5-0.8,7.1-0.9,10.6-0.2c4.4,0.8,8.6,2.2,13.1,2.4c16.5,0.6,30-11.8,46.3-12.4c4.2-0.2,8.5,0.6,11.9,3c2.9,2,5,5.3,5.1,8.9
			c0.1,4-2.2,7.7-4.8,10.6c-2.5,2.8-5.5,5.3-8.7,7.3c-12.4,8.2-28.4,11.1-42.9,7.4c-1.8-0.4-3.5-1-5.2-1.6c-1.8-0.7-2.6,2.2-0.8,2.9
			c15.2,5.6,32.7,3.9,46.9-3.9c6.9-3.8,14.4-9.5,17.4-17.1c3.3-8.2-1.9-16.3-9.7-19.2c-8.5-3.1-18-0.4-26.1,2.7
			c-8,3-15.9,7.1-24.5,8.2c-4.7,0.6-9-0.2-13.6-1.2c-4.2-1-8.3-1.7-12.6-1.2c-7.3,0.9-14.3,4.6-18.9,10.4
			c-4.6,5.8-6.3,13.1-4.4,20.3c1.8,6.6,6.4,12.8,12.7,15.6c1.6,0.7,3.3,1.2,5,1.5C277.5,528.3,278.3,525.4,276.4,525.1L276.4,525.1z
			"/>
	</g>
</g>
<g>
	<g>
		<path class="st5" d="M1522.3,802.5c1.9,0,1.9-3,0-3C1520.4,799.5,1520.4,802.5,1522.3,802.5L1522.3,802.5z"/>
	</g>
</g>
</svg>
