<svg id="visual" viewBox="0 0 1600 800" width="1600" height="800" xmlns="http://www.w3.org/2000/svg" xmlns:xlink="http://www.w3.org/1999/xlink" version="1.1"><rect x="0" y="0" width="1600" height="800" fill="#171717"></rect><path d="M0 584L178 650L356 600L533 632L711 615L889 587L1067 533L1244 594L1422 577L1600 610L1600 801L1422 801L1244 801L1067 801L889 801L711 801L533 801L356 801L178 801L0 801Z" fill="#06b6d4"></path><path d="M0 673L178 610L356 668L533 652L711 694L889 683L1067 711L1244 671L1422 665L1600 709L1600 801L1422 801L1244 801L1067 801L889 801L711 801L533 801L356 801L178 801L0 801Z" fill="#00c7c9"></path><path d="M0 642L178 737L356 697L533 704L711 638L889 684L1067 725L1244 744L1422 691L1600 662L1600 801L1422 801L1244 801L1067 801L889 801L711 801L533 801L356 801L178 801L0 801Z" fill="#00d4af"></path><path d="M0 718L178 753L356 775L533 707L711 753L889 694L1067 756L1244 768L1422 721L1600 774L1600 801L1422 801L1244 801L1067 801L889 801L711 801L533 801L356 801L178 801L0 801Z" fill="#4ade80"></path></svg>