<svg id="Layer_1" data-name="Layer 1" xmlns="http://www.w3.org/2000/svg" viewBox="0 0 823.2 735.5" style="enable-background:new 0 0 823.2 735.5;" xml:space="preserve"><title>hero-illustration2</title><path d="M770.31,400.74,181.13,652.81a16.52,16.52,0,0,1-21.66-8.68L4,280.82A12.11,12.11,0,0,1,10.4,265L607.51,9.5A12.31,12.31,0,0,1,623.65,16L779,379.08A16.51,16.51,0,0,1,770.31,400.74Z" transform="translate(0 0)" style="fill:#f2f2f2"/><path d="M743.07,389.74,194,624.66c-8,3.44-17.22.11-20.44-7.43L38.17,300.86c-2.39-5.59.52-12.21,6.48-14.76L601.14,48c6.06-2.59,13-.08,15.4,5.6l135.28,316.2C755,377.36,751.12,386.3,743.07,389.74Z" transform="translate(0 0)" style="fill:#fff"/><path d="M624.16,17.76,4.64,282.8l-3.31-7.72a16.58,16.58,0,0,1,8.72-21.73l589.07-252A16.57,16.57,0,0,1,620.86,10Z" transform="translate(0 0)" style="fill:#06b6d4"/><circle cx="27.41" cy="259.52" r="4.28" style="fill:#fff"/><circle cx="42.36" cy="253.12" r="4.28" style="fill:#fff"/><circle cx="57.3" cy="246.73" r="4.28" style="fill:#fff"/><circle cx="72.86" cy="240.09" r="4.28" style="fill:#fff"/><path d="M303.89,363.78l-73.23,31.33A16.52,16.52,0,0,1,209,386.43l-40.42-94.49a16.51,16.51,0,0,1,8.68-21.66L250.48,239a16.52,16.52,0,0,1,21.66,8.68l40.43,94.49A16.52,16.52,0,0,1,303.89,363.78Z" transform="translate(0 0)" style="fill:#f2f2f2"/><path d="M427.8,310.77,354.57,342.1a16.52,16.52,0,0,1-21.66-8.68l-40.43-94.49a16.52,16.52,0,0,1,8.68-21.66l73.23-31.33a16.52,16.52,0,0,1,21.66,8.68l40.43,94.49A16.52,16.52,0,0,1,427.8,310.77Z" transform="translate(0 0)" style="fill:#f2f2f2"/><path d="M551.71,257.76l-73.23,31.33a16.52,16.52,0,0,1-21.66-8.68l-40.43-94.49a16.52,16.52,0,0,1,8.68-21.66l73.23-31.33A16.52,16.52,0,0,1,520,141.61l40.43,94.49A16.52,16.52,0,0,1,551.71,257.76Z" transform="translate(0 0)" style="fill:#f2f2f2"/><path d="M366.43,510,293.2,541.29a16.52,16.52,0,0,1-21.66-8.68l-40.42-94.49a16.51,16.51,0,0,1,8.68-21.66L313,385.13a16.52,16.52,0,0,1,21.66,8.68l40.43,94.49A16.52,16.52,0,0,1,366.43,510Z" transform="translate(0 0)" style="fill:#f2f2f2"/><path d="M490.34,457l-73.23,31.33a16.52,16.52,0,0,1-21.66-8.68L355,385.11a16.52,16.52,0,0,1,8.68-21.66l73.23-31.33a16.52,16.52,0,0,1,21.66,8.68L499,435.29A16.52,16.52,0,0,1,490.34,457Z" transform="translate(0 0)" style="fill:#f2f2f2"/><path d="M614.25,403.94,541,435.27a16.52,16.52,0,0,1-21.66-8.68L478.93,332.1a16.52,16.52,0,0,1,8.68-21.66l73.23-31.33a16.52,16.52,0,0,1,21.66,8.68l40.43,94.49A16.52,16.52,0,0,1,614.25,403.94Z" transform="translate(0 0)" style="fill:#f2f2f2"/><path d="M806.74,735.54H165.9A16.52,16.52,0,0,1,149.4,719V323.89a12.11,12.11,0,0,1,12.09-12.09H810.94a12.32,12.32,0,0,1,12.3,12.3V719A16.52,16.52,0,0,1,806.74,735.54Z" transform="translate(0 0)" style="fill:#e6e6e6"/><path d="M786,714.71H188.77c-8.75,0-15.87-6.67-15.87-14.87V355.73c0-6.08,5.28-11,11.76-11H789.94c6.59,0,12,5,12,11.21V699.84C801.9,708,794.77,714.71,786,714.71Z" transform="translate(0 0)" style="fill:#fff"/><path d="M823,325.94H149.17v-8.4A16.57,16.57,0,0,1,165.73,301H806.45A16.57,16.57,0,0,1,823,317.54Z" transform="translate(0 0)" style="fill:#06b6d4"/><circle cx="179.26" cy="313.49" r="4.28" style="fill:#fff"/><circle cx="195.52" cy="313.49" r="4.28" style="fill:#fff"/><circle cx="211.78" cy="313.49" r="4.28" style="fill:#fff"/><circle cx="228.45" cy="313.47" r="4.28" style="fill:#fff"/><rect x="451.01" y="453.31" width="199.83" height="25.3" rx="12.65" style="fill:#e6e6e6"/><rect x="451.01" y="580.8" width="199.83" height="25.3" rx="12.65" style="fill:#e6e6e6"/><rect x="450.2" y="510.06" width="310.35" height="39.3" rx="19.65" style="fill:#e6e6e6"/><path d="M423.59,529.71a110,110,0,1,1-110-110A110,110,0,0,1,423.59,529.71Z" transform="translate(0 0)" style="fill:#fff"/><circle cx="313.57" cy="542.62" r="114.94" style="fill:#dcf3f4"/><path d="M313.58,429.68a112.94,112.94,0,1,1-79.86,33.08,112.19,112.19,0,0,1,79.86-33.08m0-4A116.94,116.94,0,1,0,430.51,542.62,116.95,116.95,0,0,0,313.58,425.68Z" transform="translate(0 0)" style="fill:#262626"/><path d="M367.57,643.82c-15.45-39.46-30.1-10.05-40.81-29h0c-5.61,2.56-21.92,1.42-27.93-.26-12.67,19.5-23.73-10-39,29.29C294.72,664.19,330.59,665.25,367.57,643.82Z" transform="translate(0 0)" style="fill:#262626"/><path d="M369,643.42c-3.38-8.56-8.27-19.73-18-22.58a24.09,24.09,0,0,0-8.46-.59c-1.3.09-2.6.21-3.9.23a13.24,13.24,0,0,1-3.48-.28c-3.2-.74-5.43-3.17-7.14-6.17a1.54,1.54,0,0,0-2.05-.54,17.38,17.38,0,0,1-5.42,1.1,63.43,63.43,0,0,1-7.8.15,58.84,58.84,0,0,1-13.55-1.66,1.55,1.55,0,0,0-1.7.69c-1.72,2.64-4.08,5.24-6.9,6.2a17,17,0,0,1-6.87.46,25.12,25.12,0,0,0-7.69.29,16.3,16.3,0,0,0-8.05,5.15c-4.48,5-7.24,11.39-9.66,17.55a1.51,1.51,0,0,0,.69,1.7c12.94,7.52,27.07,13,41.95,15a97.51,97.51,0,0,0,42.74-4,126.8,126.8,0,0,0,24.59-11,1.5,1.5,0,0,0-1.52-2.59c-13,7.51-27.33,13.07-42.33,14.83a95.2,95.2,0,0,1-40.9-4.32,121.08,121.08,0,0,1-23-10.51l.69,1.69c2.15-5.48,4.62-11.24,8.48-15.76a13.81,13.81,0,0,1,7.44-4.91,26.94,26.94,0,0,1,7-.08,18.33,18.33,0,0,0,7.37-.66c3.74-1.32,6.43-4.28,8.55-7.52l-1.69.68a62.54,62.54,0,0,0,14.68,1.78c4.69.14,10,.27,14.41-1.67l-2.06-.53c1.7,3,4,5.66,7.2,7a17.12,17.12,0,0,0,7.55.89,44.94,44.94,0,0,1,7.83-.16,14.4,14.4,0,0,1,8.09,4c4.76,4.52,7.63,11,10,17C366.83,646,369.73,645.22,369,643.42Z" transform="translate(0 0)" style="fill:#262626"/><path d="M364.43,548.53c-1.2,70.35-105.84,70.34-107,0C258.6,478.18,363.24,478.19,364.43,548.53Z" transform="translate(0 0)" style="fill:#06b6d4"/><path d="M318.32,547.2a21.46,21.46,0,0,1,4.3,5.59,2.68,2.68,0,0,1,.44,1.63c-.18,1.12-1.52,1.58-2.64,1.77a54.16,54.16,0,0,1-8.8.83" transform="translate(0 0)" style="fill:none;stroke:#262626;stroke-miterlimit:16"/><path d="M292.76,565.84a15.25,15.25,0,0,0,18.05,10.75" transform="translate(0 0)" style="fill:none;stroke:#262626;stroke-miterlimit:16"/><path d="M293.3,536.26a23.74,23.74,0,0,1,10.54-.17" transform="translate(0 0)" style="fill:none;stroke:#262626;stroke-miterlimit:16"/><path d="M324.35,536.67a20.35,20.35,0,0,1,7.54-.87l2.72,0" transform="translate(0 0)" style="fill:none;stroke:#262626;stroke-miterlimit:16"/><path d="M276.43,525.1c-6.41-1-11.47-5.5-14.22-11.25a20.06,20.06,0,0,1,.53-18.66,25.55,25.55,0,0,1,26.61-11.74c4.36.83,8.6,2.21,13.06,2.37,16.5.59,30-11.76,46.28-12.38,4.17-.16,8.46.58,11.92,3a11.66,11.66,0,0,1,5.14,8.89c.09,4-2.17,7.68-4.76,10.58a44.68,44.68,0,0,1-8.66,7.33,54.53,54.53,0,0,1-42.86,7.39,52.77,52.77,0,0,1-5.23-1.63c-1.82-.67-2.6,2.23-.8,2.89A57.17,57.17,0,0,0,350.29,508c6.92-3.83,14.39-9.51,17.4-17.06,3.27-8.19-1.88-16.3-9.7-19.19-8.5-3.14-18-.39-26.14,2.69s-15.91,7.11-24.51,8.15c-4.66.57-9-.17-13.56-1.24-4.16-1-8.28-1.71-12.56-1.18a28.78,28.78,0,0,0-18.92,10.37,22.92,22.92,0,0,0-4.36,20.31c1.76,6.62,6.36,12.79,12.69,15.63a19.48,19.48,0,0,0,5,1.5c1.89.3,2.7-2.59.8-2.89Z" transform="translate(0 0)" style="fill:#262626"/><path d="M1522.33,802.5a1.5,1.5,0,0,0,0-3,1.5,1.5,0,0,0,0,3Z" transform="translate(0 0)" style="fill:#262626"/></svg>