<svg id="visual" viewBox="0 0 900 600" width="900" height="600" xmlns="http://www.w3.org/2000/svg" xmlns:xlink="http://www.w3.org/1999/xlink" version="1.1"><rect x="0" y="0" width="900" height="600" fill="#6dffa3"></rect><path d="M410 0L460 0L460 40L559 40L559 80L564 80L564 120L549 120L549 160L438 160L438 200L543 200L543 240L438 240L438 280L531 280L531 320L412 320L412 360L450 360L450 400L558 400L558 440L547 440L547 480L462 480L462 520L467 520L467 560L405 560L405 600L0 600L0 560L0 560L0 520L0 520L0 480L0 480L0 440L0 440L0 400L0 400L0 360L0 360L0 320L0 320L0 280L0 280L0 240L0 240L0 200L0 200L0 160L0 160L0 120L0 120L0 80L0 80L0 40L0 40L0 0L0 0Z" fill="#5df091"></path><path d="M297 0L391 0L391 40L340 40L340 80L293 80L293 120L373 120L373 160L436 160L436 200L392 200L392 240L382 240L382 280L402 280L402 320L437 320L437 360L364 360L364 400L287 400L287 440L399 440L399 480L352 480L352 520L370 520L370 560L340 560L340 600L0 600L0 560L0 560L0 520L0 520L0 480L0 480L0 440L0 440L0 400L0 400L0 360L0 360L0 320L0 320L0 280L0 280L0 240L0 240L0 200L0 200L0 160L0 160L0 120L0 120L0 80L0 80L0 40L0 40L0 0L0 0Z" fill="#4ce180"></path><path d="M178 0L224 0L224 40L183 40L183 80L235 80L235 120L247 120L247 160L322 160L322 200L184 200L184 240L231 240L231 280L300 280L300 320L288 320L288 360L237 360L237 400L252 400L252 440L212 440L212 480L319 480L319 520L308 520L308 560L207 560L207 600L0 600L0 560L0 560L0 520L0 520L0 480L0 480L0 440L0 440L0 400L0 400L0 360L0 360L0 320L0 320L0 280L0 280L0 240L0 240L0 200L0 200L0 160L0 160L0 120L0 120L0 80L0 80L0 40L0 40L0 0L0 0Z" fill="#39d36f"></path><path d="M90 0L188 0L188 40L182 40L182 80L179 80L179 120L182 120L182 160L82 160L82 200L196 200L196 240L85 240L85 280L183 280L183 320L150 320L150 360L108 360L108 400L185 400L185 440L59 440L59 480L200 480L200 520L144 520L144 560L171 560L171 600L0 600L0 560L0 560L0 520L0 520L0 480L0 480L0 440L0 440L0 400L0 400L0 360L0 360L0 320L0 320L0 280L0 280L0 240L0 240L0 200L0 200L0 160L0 160L0 120L0 120L0 80L0 80L0 40L0 40L0 0L0 0Z" fill="#22c55e"></path></svg>