<svg id="visual" viewBox="0 0 1920 1080" width="1920" height="1080" xmlns="http://www.w3.org/2000/svg" xmlns:xlink="http://www.w3.org/1999/xlink" version="1.1"><rect x="0" y="0" width="1920" height="1080" fill="#fff7ed"></rect><path d="M0 838L274 892L549 838L823 889L1097 903L1371 842L1646 893L1920 837L1920 1081L1646 1081L1371 1081L1097 1081L823 1081L549 1081L274 1081L0 1081Z" fill="#3f6212"></path><path d="M0 873L274 877L549 883L823 915L1097 891L1371 881L1646 929L1920 907L1920 1081L1646 1081L1371 1081L1097 1081L823 1081L549 1081L274 1081L0 1081Z" fill="#6e7c39"></path><path d="M0 912L274 937L549 926L823 954L1097 919L1371 940L1646 941L1920 937L1920 1081L1646 1081L1371 1081L1097 1081L823 1081L549 1081L274 1081L0 1081Z" fill="#989861"></path><path d="M0 975L274 966L549 950L823 973L1097 981L1371 959L1646 957L1920 986L1920 1081L1646 1081L1371 1081L1097 1081L823 1081L549 1081L274 1081L0 1081Z" fill="#bfb58c"></path><path d="M0 998L274 1004L549 1013L823 1004L1097 988L1371 1012L1646 994L1920 996L1920 1081L1646 1081L1371 1081L1097 1081L823 1081L549 1081L274 1081L0 1081Z" fill="#e1d5bc"></path><path d="M0 1031L274 1043L549 1045L823 1023L1097 1023L1371 1039L1646 1029L1920 1028L1920 1081L1646 1081L1371 1081L1097 1081L823 1081L549 1081L274 1081L0 1081Z" fill="#fff7ed"></path></svg>