<svg id="visual" viewBox="0 0 900 600" width="900" height="600" xmlns="http://www.w3.org/2000/svg" xmlns:xlink="http://www.w3.org/1999/xlink" version="1.1"><rect x="0" y="0" width="900" height="600" fill="#991b1b"></rect><path d="M359 0L428 0L428 35L367 35L367 71L314 71L314 106L400 106L400 141L305 141L305 176L390 176L390 212L411 212L411 247L376 247L376 282L373 282L373 318L369 318L369 353L321 353L321 388L430 388L430 424L321 424L321 459L335 459L335 494L296 494L296 529L326 529L326 565L302 565L302 600L0 600L0 565L0 565L0 529L0 529L0 494L0 494L0 459L0 459L0 424L0 424L0 388L0 388L0 353L0 353L0 318L0 318L0 282L0 282L0 247L0 247L0 212L0 212L0 176L0 176L0 141L0 141L0 106L0 106L0 71L0 71L0 35L0 35L0 0L0 0Z" fill="#ef4444"></path><path d="M198 0L220 0L220 35L290 35L290 71L295 71L295 106L323 106L323 141L326 141L326 176L192 176L192 212L185 212L185 247L298 247L298 282L240 282L240 318L324 318L324 353L226 353L226 388L187 388L187 424L243 424L243 459L229 459L229 494L326 494L326 529L215 529L215 565L303 565L303 600L0 600L0 565L0 565L0 529L0 529L0 494L0 494L0 459L0 459L0 424L0 424L0 388L0 388L0 353L0 353L0 318L0 318L0 282L0 282L0 247L0 247L0 212L0 212L0 176L0 176L0 141L0 141L0 106L0 106L0 71L0 71L0 35L0 35L0 0L0 0Z" fill="#f97876"></path><path d="M96 0L80 0L80 35L170 35L170 71L158 71L158 106L110 106L110 141L146 141L146 176L175 176L175 212L136 212L136 247L170 247L170 282L132 282L132 318L193 318L193 353L197 353L197 388L96 388L96 424L120 424L120 459L73 459L73 494L100 494L100 529L188 529L188 565L158 565L158 600L0 600L0 565L0 565L0 529L0 529L0 494L0 494L0 459L0 459L0 424L0 424L0 388L0 388L0 353L0 353L0 318L0 318L0 282L0 282L0 247L0 247L0 212L0 212L0 176L0 176L0 141L0 141L0 106L0 106L0 71L0 71L0 35L0 35L0 0L0 0Z" fill="#fca5a5"></path></svg>