<svg id="visual" viewBox="0 0 1920 1080" width="1920" height="1080" xmlns="http://www.w3.org/2000/svg" xmlns:xlink="http://www.w3.org/1999/xlink" version="1.1"><path d="M0 55L45.7 53.2C91.3 51.3 182.7 47.7 274.2 45.8C365.7 44 457.3 44 548.8 45.8C640.3 47.7 731.7 51.3 823 53.2C914.3 55 1005.7 55 1097 53.2C1188.3 51.3 1279.7 47.7 1371.2 45.8C1462.7 44 1554.3 44 1645.8 45.8C1737.3 47.7 1828.7 51.3 1874.3 53.2L1920 55L1920 0L1874.3 0C1828.7 0 1737.3 0 1645.8 0C1554.3 0 1462.7 0 1371.2 0C1279.7 0 1188.3 0 1097 0C1005.7 0 914.3 0 823 0C731.7 0 640.3 0 548.8 0C457.3 0 365.7 0 274.2 0C182.7 0 91.3 0 45.7 0L0 0Z" fill="#1e40af"></path><path d="M0 131L45.7 127.3C91.3 123.7 182.7 116.3 274.2 112.7C365.7 109 457.3 109 548.8 112.7C640.3 116.3 731.7 123.7 823 123.7C914.3 123.7 1005.7 116.3 1097 114.5C1188.3 112.7 1279.7 116.3 1371.2 116.3C1462.7 116.3 1554.3 112.7 1645.8 110.8C1737.3 109 1828.7 109 1874.3 109L1920 109L1920 53L1874.3 51.2C1828.7 49.3 1737.3 45.7 1645.8 43.8C1554.3 42 1462.7 42 1371.2 43.8C1279.7 45.7 1188.3 49.3 1097 51.2C1005.7 53 914.3 53 823 51.2C731.7 49.3 640.3 45.7 548.8 43.8C457.3 42 365.7 42 274.2 43.8C182.7 45.7 91.3 49.3 45.7 51.2L0 53Z" fill="#3a71ca"></path><path d="M0 228L45.7 226.2C91.3 224.3 182.7 220.7 274.2 217C365.7 213.3 457.3 209.7 548.8 215C640.3 220.3 731.7 234.7 823 232.8C914.3 231 1005.7 213 1097 207.7C1188.3 202.3 1279.7 209.7 1371.2 209.7C1462.7 209.7 1554.3 202.3 1645.8 200.5C1737.3 198.7 1828.7 202.3 1874.3 204.2L1920 206L1920 107L1874.3 107C1828.7 107 1737.3 107 1645.8 108.8C1554.3 110.7 1462.7 114.3 1371.2 114.3C1279.7 114.3 1188.3 110.7 1097 112.5C1005.7 114.3 914.3 121.7 823 121.7C731.7 121.7 640.3 114.3 548.8 110.7C457.3 107 365.7 107 274.2 110.7C182.7 114.3 91.3 121.7 45.7 125.3L0 129Z" fill="#6ca0de"></path><path d="M0 293L45.7 294.7C91.3 296.3 182.7 299.7 274.2 297.8C365.7 296 457.3 289 548.8 290.8C640.3 292.7 731.7 303.3 823 303.3C914.3 303.3 1005.7 292.7 1097 287.3C1188.3 282 1279.7 282 1371.2 278.3C1462.7 274.7 1554.3 267.3 1645.8 269.2C1737.3 271 1828.7 282 1874.3 287.5L1920 293L1920 204L1874.3 202.2C1828.7 200.3 1737.3 196.7 1645.8 198.5C1554.3 200.3 1462.7 207.7 1371.2 207.7C1279.7 207.7 1188.3 200.3 1097 205.7C1005.7 211 914.3 229 823 230.8C731.7 232.7 640.3 218.3 548.8 213C457.3 207.7 365.7 211.3 274.2 215C182.7 218.7 91.3 222.3 45.7 224.2L0 226Z" fill="#a9cdee"></path><path d="M0 476L45.7 481.5C91.3 487 182.7 498 274.2 508.8C365.7 519.7 457.3 530.3 548.8 537.5C640.3 544.7 731.7 548.3 823 552C914.3 555.7 1005.7 559.3 1097 559.3C1188.3 559.3 1279.7 555.7 1371.2 546.7C1462.7 537.7 1554.3 523.3 1645.8 517.8C1737.3 512.3 1828.7 515.7 1874.3 517.3L1920 519L1920 291L1874.3 285.5C1828.7 280 1737.3 269 1645.8 267.2C1554.3 265.3 1462.7 272.7 1371.2 276.3C1279.7 280 1188.3 280 1097 285.3C1005.7 290.7 914.3 301.3 823 301.3C731.7 301.3 640.3 290.7 548.8 288.8C457.3 287 365.7 294 274.2 295.8C182.7 297.7 91.3 294.3 45.7 292.7L0 291Z" fill="#f0f9ff"></path><path d="M0 725L45.7 723.2C91.3 721.3 182.7 717.7 274.2 715.8C365.7 714 457.3 714 548.8 712.2C640.3 710.3 731.7 706.7 823 713.8C914.3 721 1005.7 739 1097 748C1188.3 757 1279.7 757 1371.2 751.7C1462.7 746.3 1554.3 735.7 1645.8 730.3C1737.3 725 1828.7 725 1874.3 725L1920 725L1920 517L1874.3 515.3C1828.7 513.7 1737.3 510.3 1645.8 515.8C1554.3 521.3 1462.7 535.7 1371.2 544.7C1279.7 553.7 1188.3 557.3 1097 557.3C1005.7 557.3 914.3 553.7 823 550C731.7 546.3 640.3 542.7 548.8 535.5C457.3 528.3 365.7 517.7 274.2 506.8C182.7 496 91.3 485 45.7 479.5L0 474Z" fill="#f0f9ff"></path><path d="M0 768L45.7 766.2C91.3 764.3 182.7 760.7 274.2 758.8C365.7 757 457.3 757 548.8 755.2C640.3 753.3 731.7 749.7 823 758.7C914.3 767.7 1005.7 789.3 1097 800.2C1188.3 811 1279.7 811 1371.2 805.7C1462.7 800.3 1554.3 789.7 1645.8 782.5C1737.3 775.3 1828.7 771.7 1874.3 769.8L1920 768L1920 723L1874.3 723C1828.7 723 1737.3 723 1645.8 728.3C1554.3 733.7 1462.7 744.3 1371.2 749.7C1279.7 755 1188.3 755 1097 746C1005.7 737 914.3 719 823 711.8C731.7 704.7 640.3 708.3 548.8 710.2C457.3 712 365.7 712 274.2 713.8C182.7 715.7 91.3 719.3 45.7 721.2L0 723Z" fill="#f0f9ff"></path><path d="M0 833L45.7 833C91.3 833 182.7 833 274.2 831.2C365.7 829.3 457.3 825.7 548.8 823.8C640.3 822 731.7 822 823 831C914.3 840 1005.7 858 1097 868.8C1188.3 879.7 1279.7 883.3 1371.2 877.8C1462.7 872.3 1554.3 857.7 1645.8 850.3C1737.3 843 1828.7 843 1874.3 843L1920 843L1920 766L1874.3 767.8C1828.7 769.7 1737.3 773.3 1645.8 780.5C1554.3 787.7 1462.7 798.3 1371.2 803.7C1279.7 809 1188.3 809 1097 798.2C1005.7 787.3 914.3 765.7 823 756.7C731.7 747.7 640.3 751.3 548.8 753.2C457.3 755 365.7 755 274.2 756.8C182.7 758.7 91.3 762.3 45.7 764.2L0 766Z" fill="#a9cdee"></path><path d="M0 876L45.7 879.5C91.3 883 182.7 890 274.2 890C365.7 890 457.3 883 548.8 881.3C640.3 879.7 731.7 883.3 823 890.5C914.3 897.7 1005.7 908.3 1097 915.5C1188.3 922.7 1279.7 926.3 1371.2 924.5C1462.7 922.7 1554.3 915.3 1645.8 908.2C1737.3 901 1828.7 894 1874.3 890.5L1920 887L1920 841L1874.3 841C1828.7 841 1737.3 841 1645.8 848.3C1554.3 855.7 1462.7 870.3 1371.2 875.8C1279.7 881.3 1188.3 877.7 1097 866.8C1005.7 856 914.3 838 823 829C731.7 820 640.3 820 548.8 821.8C457.3 823.7 365.7 827.3 274.2 829.2C182.7 831 91.3 831 45.7 831L0 831Z" fill="#6ca0de"></path><path d="M0 1027L45.7 1028.8C91.3 1030.7 182.7 1034.3 274.2 1036.2C365.7 1038 457.3 1038 548.8 1036.2C640.3 1034.3 731.7 1030.7 823 1030.7C914.3 1030.7 1005.7 1034.3 1097 1036.2C1188.3 1038 1279.7 1038 1371.2 1036.2C1462.7 1034.3 1554.3 1030.7 1645.8 1028.8C1737.3 1027 1828.7 1027 1874.3 1027L1920 1027L1920 885L1874.3 888.5C1828.7 892 1737.3 899 1645.8 906.2C1554.3 913.3 1462.7 920.7 1371.2 922.5C1279.7 924.3 1188.3 920.7 1097 913.5C1005.7 906.3 914.3 895.7 823 888.5C731.7 881.3 640.3 877.7 548.8 879.3C457.3 881 365.7 888 274.2 888C182.7 888 91.3 881 45.7 877.5L0 874Z" fill="#3a71ca"></path><path d="M0 1081L45.7 1081C91.3 1081 182.7 1081 274.2 1081C365.7 1081 457.3 1081 548.8 1081C640.3 1081 731.7 1081 823 1081C914.3 1081 1005.7 1081 1097 1081C1188.3 1081 1279.7 1081 1371.2 1081C1462.7 1081 1554.3 1081 1645.8 1081C1737.3 1081 1828.7 1081 1874.3 1081L1920 1081L1920 1025L1874.3 1025C1828.7 1025 1737.3 1025 1645.8 1026.8C1554.3 1028.7 1462.7 1032.3 1371.2 1034.2C1279.7 1036 1188.3 1036 1097 1034.2C1005.7 1032.3 914.3 1028.7 823 1028.7C731.7 1028.7 640.3 1032.3 548.8 1034.2C457.3 1036 365.7 1036 274.2 1034.2C182.7 1032.3 91.3 1028.7 45.7 1026.8L0 1025Z" fill="#1e40af"></path></svg>