<svg id="visual" viewBox="0 0 1920 1080" width="1920" height="1080" xmlns="http://www.w3.org/2000/svg" xmlns:xlink="http://www.w3.org/1999/xlink" version="1.1"><rect x="0" y="0" width="1920" height="1080" fill="#fff7ed"></rect><path d="M0 893L384 893L384 817L768 817L768 831L1152 831L1152 893L1536 893L1536 858L1920 858L1920 891L1920 1081L1920 1081L1536 1081L1536 1081L1152 1081L1152 1081L768 1081L768 1081L384 1081L384 1081L0 1081Z" fill="#648b32"></path><path d="M0 915L384 915L384 946L768 946L768 916L1152 916L1152 945L1536 945L1536 953L1920 953L1920 921L1920 1081L1920 1081L1536 1081L1536 1081L1152 1081L1152 1081L768 1081L768 1081L384 1081L384 1081L0 1081Z" fill="#2d4812"></path></svg>