<svg id="visual" viewBox="0 0 900 600" width="900" height="600" xmlns="http://www.w3.org/2000/svg" xmlns:xlink="http://www.w3.org/1999/xlink" version="1.1"><g stroke-width="1" stroke-linejoin="bevel"><path d="M435 294.9L373 354.9L494 339.9Z" fill="#005a87" stroke="#005a87"></path><path d="M373 354.9L408 430.6L494 339.9Z" fill="#005a87" stroke="#005a87"></path><path d="M373 354.9L347 399.6L408 430.6Z" fill="#1d60a1" stroke="#1d60a1"></path><path d="M493 207.1L436 213.4L435 294.9Z" fill="#4963b7" stroke="#4963b7"></path><path d="M302 278.1L293 313.1L373 354.9Z" fill="#3a62b0" stroke="#3a62b0"></path><path d="M373 354.9L293 313.1L347 399.6Z" fill="#005c90" stroke="#005c90"></path><path d="M436 213.4L400 213.4L435 294.9Z" fill="#005a87" stroke="#005a87"></path><path d="M302 278.1L373 354.9L435 294.9Z" fill="#4963b7" stroke="#4963b7"></path><path d="M400 213.4L302 278.1L435 294.9Z" fill="#00577e" stroke="#00577e"></path><path d="M494 339.9L493 207.1L435 294.9Z" fill="#025475" stroke="#025475"></path><path d="M436 213.4L381 54.7L400 213.4Z" fill="#4963b7" stroke="#4963b7"></path><path d="M494 339.9L501 206.1L493 207.1Z" fill="#00577e" stroke="#00577e"></path><path d="M493 207.1L478 51.7L436 213.4Z" fill="#005a87" stroke="#005a87"></path><path d="M293 313.1L270 386.9L347 399.6Z" fill="#005a87" stroke="#005a87"></path><path d="M347 399.6L394 553.3L408 430.6Z" fill="#005a87" stroke="#005a87"></path><path d="M213 402.6L270 386.9L165 368.9Z" fill="#025475" stroke="#025475"></path><path d="M408 430.6L576 480.6L494 339.9Z" fill="#005a87" stroke="#005a87"></path><path d="M494 339.9L617 203.1L501 206.1Z" fill="#3a62b0" stroke="#3a62b0"></path><path d="M580 476.3L590 462.6L494 339.9Z" fill="#005c90" stroke="#005c90"></path><path d="M576 480.6L580 476.3L494 339.9Z" fill="#0d5e99" stroke="#0d5e99"></path><path d="M226 472.6L394 553.3L347 399.6Z" fill="#2b61a9" stroke="#2b61a9"></path><path d="M408 430.6L549 554.3L576 480.6Z" fill="#00577e" stroke="#00577e"></path><path d="M394 553.3L435 574.3L408 430.6Z" fill="#1d60a1" stroke="#1d60a1"></path><path d="M165 368.9L270 386.9L293 313.1Z" fill="#0d516c" stroke="#0d516c"></path><path d="M270 386.9L226 472.6L347 399.6Z" fill="#005c90" stroke="#005c90"></path><path d="M435 574.3L549 554.3L408 430.6Z" fill="#0d5e99" stroke="#0d5e99"></path><path d="M576 480.6L705 522.3L580 476.3Z" fill="#3a62b0" stroke="#3a62b0"></path><path d="M705 522.3L725 396.6L590 462.6Z" fill="#4963b7" stroke="#4963b7"></path><path d="M691 299.1L667 324.9L717 307.9Z" fill="#005a87" stroke="#005a87"></path><path d="M590 462.6L667 324.9L494 339.9Z" fill="#4963b7" stroke="#4963b7"></path><path d="M667 324.9L617 203.1L494 339.9Z" fill="#164e63" stroke="#164e63"></path><path d="M213 402.6L226 472.6L270 386.9Z" fill="#164e63" stroke="#164e63"></path><path d="M394 553.3L420 600L435 574.3Z" fill="#0d516c" stroke="#0d516c"></path><path d="M617 203.1L580 163.4L501 206.1Z" fill="#025475" stroke="#025475"></path><path d="M501 206.1L542 119.4L493 207.1Z" fill="#00577e" stroke="#00577e"></path><path d="M279 600L420 600L394 553.3Z" fill="#4963b7" stroke="#4963b7"></path><path d="M435 574.3L496 600L549 554.3Z" fill="#1d60a1" stroke="#1d60a1"></path><path d="M420 600L496 600L435 574.3Z" fill="#0d516c" stroke="#0d516c"></path><path d="M496 600L524 600L549 554.3Z" fill="#025475" stroke="#025475"></path><path d="M227 157.4L243 180.4L381 54.7Z" fill="#2b61a9" stroke="#2b61a9"></path><path d="M400 213.4L243 180.4L302 278.1Z" fill="#0d5e99" stroke="#0d5e99"></path><path d="M302 278.1L177 203.1L293 313.1Z" fill="#3a62b0" stroke="#3a62b0"></path><path d="M594 23.7L542 119.4L580 163.4Z" fill="#1d60a1" stroke="#1d60a1"></path><path d="M580 163.4L542 119.4L501 206.1Z" fill="#0d516c" stroke="#0d516c"></path><path d="M717 307.9L667 324.9L725 396.6Z" fill="#2b61a9" stroke="#2b61a9"></path><path d="M667 324.9L691 299.1L617 203.1Z" fill="#005c90" stroke="#005c90"></path><path d="M667 324.9L590 462.6L725 396.6Z" fill="#4963b7" stroke="#4963b7"></path><path d="M213 402.6L147 398.9L226 472.6Z" fill="#005c90" stroke="#005c90"></path><path d="M133 242.1L165 368.9L293 313.1Z" fill="#0d516c" stroke="#0d516c"></path><path d="M187 519.3L213 533.3L226 472.6Z" fill="#0d5e99" stroke="#0d5e99"></path><path d="M226 472.6L279 600L394 553.3Z" fill="#3a62b0" stroke="#3a62b0"></path><path d="M590 462.6L580 476.3L705 522.3Z" fill="#005c90" stroke="#005c90"></path><path d="M691 299.1L773 234.1L617 203.1Z" fill="#1d60a1" stroke="#1d60a1"></path><path d="M617 203.1L690 98.7L580 163.4Z" fill="#2b61a9" stroke="#2b61a9"></path><path d="M381 54.7L243 180.4L400 213.4Z" fill="#1d60a1" stroke="#1d60a1"></path><path d="M243 180.4L177 203.1L302 278.1Z" fill="#00577e" stroke="#00577e"></path><path d="M213 533.3L279 600L226 472.6Z" fill="#00577e" stroke="#00577e"></path><path d="M0 387.9L147 398.9L165 368.9Z" fill="#025475" stroke="#025475"></path><path d="M165 368.9L147 398.9L213 402.6Z" fill="#005c90" stroke="#005c90"></path><path d="M705 522.3L576 480.6L681 600Z" fill="#0d516c" stroke="#0d516c"></path><path d="M122 466.3L187 519.3L226 472.6Z" fill="#164e63" stroke="#164e63"></path><path d="M213 533.3L142 600L279 600Z" fill="#164e63" stroke="#164e63"></path><path d="M227 157.4L177 203.1L243 180.4Z" fill="#0d5e99" stroke="#0d5e99"></path><path d="M478 51.7L381 54.7L436 213.4Z" fill="#1d60a1" stroke="#1d60a1"></path><path d="M542 119.4L478 51.7L493 207.1Z" fill="#0d5e99" stroke="#0d5e99"></path><path d="M681 600L576 480.6L549 554.3Z" fill="#005a87" stroke="#005a87"></path><path d="M725 396.6L751 295.9L717 307.9Z" fill="#4963b7" stroke="#4963b7"></path><path d="M717 307.9L751 295.9L691 299.1Z" fill="#0d5e99" stroke="#0d5e99"></path><path d="M542 119.4L594 23.7L478 51.7Z" fill="#3a62b0" stroke="#3a62b0"></path><path d="M773 234.1L900 231.1L845 192.4Z" fill="#2b61a9" stroke="#2b61a9"></path><path d="M134 110.4L133 242.1L177 203.1Z" fill="#025475" stroke="#025475"></path><path d="M177 203.1L133 242.1L293 313.1Z" fill="#005c90" stroke="#005c90"></path><path d="M30 463.6L122 466.3L147 398.9Z" fill="#4963b7" stroke="#4963b7"></path><path d="M147 398.9L122 466.3L226 472.6Z" fill="#3a62b0" stroke="#3a62b0"></path><path d="M187 519.3L142 600L213 533.3Z" fill="#00577e" stroke="#00577e"></path><path d="M524 600L681 600L549 554.3Z" fill="#0d516c" stroke="#0d516c"></path><path d="M681 600L690 600L705 522.3Z" fill="#005c90" stroke="#005c90"></path><path d="M900 331.9L751 295.9L725 396.6Z" fill="#00577e" stroke="#00577e"></path><path d="M478 51.7L396 0L381 54.7Z" fill="#3a62b0" stroke="#3a62b0"></path><path d="M381 54.7L259 35.7L227 157.4Z" fill="#1d60a1" stroke="#1d60a1"></path><path d="M227 157.4L134 110.4L177 203.1Z" fill="#0d5e99" stroke="#0d5e99"></path><path d="M811 550.3L725 396.6L705 522.3Z" fill="#3a62b0" stroke="#3a62b0"></path><path d="M751 295.9L773 234.1L691 299.1Z" fill="#025475" stroke="#025475"></path><path d="M478 51.7L577 0L396 0Z" fill="#3a62b0" stroke="#3a62b0"></path><path d="M759 150.4L690 98.7L617 203.1Z" fill="#164e63" stroke="#164e63"></path><path d="M305 0L259 35.7L381 54.7Z" fill="#00577e" stroke="#00577e"></path><path d="M690 98.7L594 23.7L580 163.4Z" fill="#0d5e99" stroke="#0d5e99"></path><path d="M396 0L305 0L381 54.7Z" fill="#1d60a1" stroke="#1d60a1"></path><path d="M759 150.4L714 98.7L690 98.7Z" fill="#005c90" stroke="#005c90"></path><path d="M690 98.7L680 0L594 23.7Z" fill="#1d60a1" stroke="#1d60a1"></path><path d="M122 466.3L142 600L187 519.3Z" fill="#005c90" stroke="#005c90"></path><path d="M587 0L577 0L594 23.7Z" fill="#2b61a9" stroke="#2b61a9"></path><path d="M594 23.7L577 0L478 51.7Z" fill="#00577e" stroke="#00577e"></path><path d="M773 234.1L759 150.4L617 203.1Z" fill="#025475" stroke="#025475"></path><path d="M680 0L587 0L594 23.7Z" fill="#025475" stroke="#025475"></path><path d="M185 25.7L227 157.4L259 35.7Z" fill="#4963b7" stroke="#4963b7"></path><path d="M185 25.7L134 110.4L227 157.4Z" fill="#1d60a1" stroke="#1d60a1"></path><path d="M0 387.9L30 463.6L147 398.9Z" fill="#0d516c" stroke="#0d516c"></path><path d="M305 0L261 0L259 35.7Z" fill="#0d516c" stroke="#0d516c"></path><path d="M261 0L233 0L259 35.7Z" fill="#3a62b0" stroke="#3a62b0"></path><path d="M233 0L185 25.7L259 35.7Z" fill="#0d5e99" stroke="#0d5e99"></path><path d="M0 387.9L165 368.9L0 262.1Z" fill="#3a62b0" stroke="#3a62b0"></path><path d="M122 466.3L77 600L142 600Z" fill="#3a62b0" stroke="#3a62b0"></path><path d="M801 600L811 550.3L705 522.3Z" fill="#005a87" stroke="#005a87"></path><path d="M30 463.6L77 600L122 466.3Z" fill="#2b61a9" stroke="#2b61a9"></path><path d="M801 23.7L680 0L714 98.7Z" fill="#0d5e99" stroke="#0d5e99"></path><path d="M714 98.7L680 0L690 98.7Z" fill="#1d60a1" stroke="#1d60a1"></path><path d="M0 262.1L165 368.9L133 242.1Z" fill="#005c90" stroke="#005c90"></path><path d="M30 463.6L0 480.6L77 600Z" fill="#025475" stroke="#025475"></path><path d="M690 600L801 600L705 522.3Z" fill="#164e63" stroke="#164e63"></path><path d="M185 25.7L105 63.7L134 110.4Z" fill="#0d516c" stroke="#0d516c"></path><path d="M0 126.4L0 262.1L133 242.1Z" fill="#005a87" stroke="#005a87"></path><path d="M0 81.7L105 63.7L58 0Z" fill="#025475" stroke="#025475"></path><path d="M773 234.1L845 192.4L759 150.4Z" fill="#2b61a9" stroke="#2b61a9"></path><path d="M759 150.4L801 23.7L714 98.7Z" fill="#005a87" stroke="#005a87"></path><path d="M900 331.9L773 234.1L751 295.9Z" fill="#4963b7" stroke="#4963b7"></path><path d="M0 126.4L133 242.1L134 110.4Z" fill="#3a62b0" stroke="#3a62b0"></path><path d="M0 387.9L0 471.3L30 463.6Z" fill="#025475" stroke="#025475"></path><path d="M900 480.3L870 469.6L900 480.6Z" fill="#025475" stroke="#025475"></path><path d="M811 550.3L870 469.6L725 396.6Z" fill="#3a62b0" stroke="#3a62b0"></path><path d="M0 471.3L0 480.6L30 463.6Z" fill="#005a87" stroke="#005a87"></path><path d="M870 469.6L900 331.9L725 396.6Z" fill="#025475" stroke="#025475"></path><path d="M900 480.6L870 469.6L811 550.3Z" fill="#0d5e99" stroke="#0d5e99"></path><path d="M870 469.6L900 480.3L900 331.9Z" fill="#005a87" stroke="#005a87"></path><path d="M900 600L900 480.6L811 550.3Z" fill="#1d60a1" stroke="#1d60a1"></path><path d="M900 331.9L900 231.1L773 234.1Z" fill="#025475" stroke="#025475"></path><path d="M900 68.7L801 23.7L759 150.4Z" fill="#0d5e99" stroke="#0d5e99"></path><path d="M105 63.7L0 126.4L134 110.4Z" fill="#4963b7" stroke="#4963b7"></path><path d="M900 68.7L759 150.4L845 192.4Z" fill="#4963b7" stroke="#4963b7"></path><path d="M0 480.6L0 600L77 600Z" fill="#00577e" stroke="#00577e"></path><path d="M900 231.1L900 170.4L845 192.4Z" fill="#164e63" stroke="#164e63"></path><path d="M105 63.7L0 81.7L0 126.4Z" fill="#4963b7" stroke="#4963b7"></path><path d="M58 0L105 63.7L185 25.7Z" fill="#1d60a1" stroke="#1d60a1"></path><path d="M233 0L58 0L185 25.7Z" fill="#0d516c" stroke="#0d516c"></path><path d="M801 600L900 600L811 550.3Z" fill="#4963b7" stroke="#4963b7"></path><path d="M900 170.4L900 68.7L845 192.4Z" fill="#1d60a1" stroke="#1d60a1"></path><path d="M900 68.7L865 0L801 23.7Z" fill="#005c90" stroke="#005c90"></path><path d="M801 23.7L865 0L680 0Z" fill="#2b61a9" stroke="#2b61a9"></path><path d="M58 0L0 0L0 81.7Z" fill="#00577e" stroke="#00577e"></path><path d="M900 68.7L900 0L865 0Z" fill="#0d5e99" stroke="#0d5e99"></path></g></svg>