<svg id="visual" viewBox="0 0 900 600" width="900" height="600" xmlns="http://www.w3.org/2000/svg" xmlns:xlink="http://www.w3.org/1999/xlink" version="1.1"><g stroke-width="1" stroke-linejoin="bevel"><path d="M423 312L499 407L522 280Z" fill="#2d4137" stroke="#2d4137"></path><path d="M499 407L577 285L522 280Z" fill="#2f4f3f" stroke="#2f4f3f"></path><path d="M499 407L566 419L577 285Z" fill="#2d4137" stroke="#2d4137"></path><path d="M423 312L375 406L499 407Z" fill="#262626" stroke="#262626"></path><path d="M499 407L492 512L566 419Z" fill="#2d4137" stroke="#2d4137"></path><path d="M577 285L514 193L522 280Z" fill="#262626" stroke="#262626"></path><path d="M522 280L433 171L423 312Z" fill="#28996d" stroke="#28996d"></path><path d="M421 517L492 512L499 407Z" fill="#2f7b5a" stroke="#2f7b5a"></path><path d="M514 193L433 171L522 280Z" fill="#2f7b5a" stroke="#2f7b5a"></path><path d="M309 279L316 399L375 406Z" fill="#306c51" stroke="#306c51"></path><path d="M309 279L375 406L423 312Z" fill="#2d4137" stroke="#2d4137"></path><path d="M375 406L421 517L499 407Z" fill="#28996d" stroke="#28996d"></path><path d="M336 216L309 279L423 312Z" fill="#28996d" stroke="#28996d"></path><path d="M736 410L670 292L566 419Z" fill="#305d48" stroke="#305d48"></path><path d="M566 419L670 292L577 285Z" fill="#20a977" stroke="#20a977"></path><path d="M577 285L607 190L514 193Z" fill="#2f7b5a" stroke="#2f7b5a"></path><path d="M334 513L421 517L375 406Z" fill="#20a977" stroke="#20a977"></path><path d="M670 292L607 190L577 285Z" fill="#2a332e" stroke="#2a332e"></path><path d="M514 193L531 97L433 171Z" fill="#2f4f3f" stroke="#2f4f3f"></path><path d="M433 171L336 216L423 312Z" fill="#10b981" stroke="#10b981"></path><path d="M567 600L605 522L492 512Z" fill="#10b981" stroke="#10b981"></path><path d="M492 512L605 522L566 419Z" fill="#10b981" stroke="#10b981"></path><path d="M316 399L334 513L375 406Z" fill="#2f4f3f" stroke="#2f4f3f"></path><path d="M607 190L531 97L514 193Z" fill="#2f7b5a" stroke="#2f7b5a"></path><path d="M433 171L360 102L336 216Z" fill="#305d48" stroke="#305d48"></path><path d="M706 495L736 410L566 419Z" fill="#2f4f3f" stroke="#2f4f3f"></path><path d="M387 600L471 600L421 517Z" fill="#2f7b5a" stroke="#2f7b5a"></path><path d="M421 517L471 600L492 512Z" fill="#2f7b5a" stroke="#2f7b5a"></path><path d="M531 97L360 102L433 171Z" fill="#10b981" stroke="#10b981"></path><path d="M336 216L217 270L309 279Z" fill="#306c51" stroke="#306c51"></path><path d="M701 600L706 495L605 522Z" fill="#262626" stroke="#262626"></path><path d="M605 522L706 495L566 419Z" fill="#2d8a64" stroke="#2d8a64"></path><path d="M471 600L567 600L492 512Z" fill="#2d8a64" stroke="#2d8a64"></path><path d="M670 292L723 199L607 190Z" fill="#10b981" stroke="#10b981"></path><path d="M607 190L616 85L531 97Z" fill="#10b981" stroke="#10b981"></path><path d="M786 307L723 199L670 292Z" fill="#262626" stroke="#262626"></path><path d="M161 169L217 270L336 216Z" fill="#2f4f3f" stroke="#2f4f3f"></path><path d="M309 279L217 270L316 399Z" fill="#262626" stroke="#262626"></path><path d="M316 399L237 471L334 513Z" fill="#10b981" stroke="#10b981"></path><path d="M334 513L387 600L421 517Z" fill="#305d48" stroke="#305d48"></path><path d="M214 420L237 471L316 399Z" fill="#306c51" stroke="#306c51"></path><path d="M334 513L335 600L387 600Z" fill="#28996d" stroke="#28996d"></path><path d="M217 270L214 420L316 399Z" fill="#2d4137" stroke="#2d4137"></path><path d="M723 199L685 135L607 190Z" fill="#20a977" stroke="#20a977"></path><path d="M685 135L616 85L607 190Z" fill="#2a332e" stroke="#2a332e"></path><path d="M531 97L377 0L360 102Z" fill="#2f4f3f" stroke="#2f4f3f"></path><path d="M828 360L786 307L736 410Z" fill="#2a332e" stroke="#2a332e"></path><path d="M736 410L786 307L670 292Z" fill="#305d48" stroke="#305d48"></path><path d="M195 600L335 600L334 513Z" fill="#2d8a64" stroke="#2d8a64"></path><path d="M723 199L767 162L685 135Z" fill="#262626" stroke="#262626"></path><path d="M738 0L629 0L616 85Z" fill="#305d48" stroke="#305d48"></path><path d="M786 307L767 162L723 199Z" fill="#2f7b5a" stroke="#2f7b5a"></path><path d="M567 600L701 600L605 522Z" fill="#262626" stroke="#262626"></path><path d="M900 500L828 360L736 410Z" fill="#306c51" stroke="#306c51"></path><path d="M765 539L736 410L706 495Z" fill="#10b981" stroke="#10b981"></path><path d="M900 225L825 131L767 162Z" fill="#306c51" stroke="#306c51"></path><path d="M701 600L765 539L706 495Z" fill="#305d48" stroke="#305d48"></path><path d="M629 0L539 0L616 85Z" fill="#262626" stroke="#262626"></path><path d="M616 85L539 0L531 97Z" fill="#306c51" stroke="#306c51"></path><path d="M337 0L284 61L360 102Z" fill="#306c51" stroke="#306c51"></path><path d="M360 102L284 61L336 216Z" fill="#262626" stroke="#262626"></path><path d="M539 0L377 0L531 97Z" fill="#2f4f3f" stroke="#2f4f3f"></path><path d="M185 95L161 169L336 216Z" fill="#28996d" stroke="#28996d"></path><path d="M217 270L103 328L214 420Z" fill="#305d48" stroke="#305d48"></path><path d="M738 0L616 85L685 135Z" fill="#306c51" stroke="#306c51"></path><path d="M377 0L337 0L360 102Z" fill="#10b981" stroke="#10b981"></path><path d="M284 61L185 95L336 216Z" fill="#2f4f3f" stroke="#2f4f3f"></path><path d="M161 169L103 328L217 270Z" fill="#262626" stroke="#262626"></path><path d="M64 535L132 600L237 471Z" fill="#306c51" stroke="#306c51"></path><path d="M237 471L195 600L334 513Z" fill="#20a977" stroke="#20a977"></path><path d="M222 0L185 95L284 61Z" fill="#10b981" stroke="#10b981"></path><path d="M161 169L65 182L103 328Z" fill="#2f7b5a" stroke="#2f7b5a"></path><path d="M103 328L100 375L214 420Z" fill="#2a332e" stroke="#2a332e"></path><path d="M132 600L195 600L237 471Z" fill="#2d8a64" stroke="#2d8a64"></path><path d="M701 600L786 600L765 539Z" fill="#20a977" stroke="#20a977"></path><path d="M900 500L900 385L828 360Z" fill="#2f4f3f" stroke="#2f4f3f"></path><path d="M900 225L767 162L786 307Z" fill="#10b981" stroke="#10b981"></path><path d="M767 162L738 0L685 135Z" fill="#20a977" stroke="#20a977"></path><path d="M900 385L900 301L828 360Z" fill="#305d48" stroke="#305d48"></path><path d="M828 360L900 301L786 307Z" fill="#20a977" stroke="#20a977"></path><path d="M900 500L736 410L765 539Z" fill="#306c51" stroke="#306c51"></path><path d="M772 0L738 0L767 162Z" fill="#2d4137" stroke="#2d4137"></path><path d="M900 301L900 225L786 307Z" fill="#2f4f3f" stroke="#2f4f3f"></path><path d="M825 131L772 0L767 162Z" fill="#2d4137" stroke="#2d4137"></path><path d="M337 0L222 0L284 61Z" fill="#10b981" stroke="#10b981"></path><path d="M64 535L237 471L214 420Z" fill="#2d4137" stroke="#2d4137"></path><path d="M900 74L772 0L825 131Z" fill="#20a977" stroke="#20a977"></path><path d="M786 600L900 500L765 539Z" fill="#262626" stroke="#262626"></path><path d="M104 88L65 182L161 169Z" fill="#305d48" stroke="#305d48"></path><path d="M103 328L0 268L100 375Z" fill="#2d8a64" stroke="#2d8a64"></path><path d="M100 375L64 535L214 420Z" fill="#2d4137" stroke="#2d4137"></path><path d="M104 88L161 169L185 95Z" fill="#20a977" stroke="#20a977"></path><path d="M222 0L104 88L185 95Z" fill="#2d8a64" stroke="#2d8a64"></path><path d="M0 429L64 535L100 375Z" fill="#10b981" stroke="#10b981"></path><path d="M786 600L900 600L900 500Z" fill="#2a332e" stroke="#2a332e"></path><path d="M900 225L900 74L825 131Z" fill="#306c51" stroke="#306c51"></path><path d="M0 220L0 268L65 182Z" fill="#10b981" stroke="#10b981"></path><path d="M65 182L0 268L103 328Z" fill="#306c51" stroke="#306c51"></path><path d="M0 268L0 429L100 375Z" fill="#20a977" stroke="#20a977"></path><path d="M0 133L0 220L65 182Z" fill="#20a977" stroke="#20a977"></path><path d="M0 429L0 506L64 535Z" fill="#28996d" stroke="#28996d"></path><path d="M64 535L0 600L132 600Z" fill="#306c51" stroke="#306c51"></path><path d="M63 0L0 133L104 88Z" fill="#305d48" stroke="#305d48"></path><path d="M104 88L0 133L65 182Z" fill="#2d8a64" stroke="#2d8a64"></path><path d="M900 74L900 0L772 0Z" fill="#305d48" stroke="#305d48"></path><path d="M222 0L63 0L104 88Z" fill="#2a332e" stroke="#2a332e"></path><path d="M0 506L0 600L64 535Z" fill="#305d48" stroke="#305d48"></path><path d="M63 0L0 0L0 133Z" fill="#2d4137" stroke="#2d4137"></path></g></svg>