<svg id="visual" viewBox="0 0 900 600" width="900" height="600" xmlns="http://www.w3.org/2000/svg" xmlns:xlink="http://www.w3.org/1999/xlink" version="1.1"><g stroke-width="1" stroke-linejoin="bevel"><path d="M433 309L471 272L401 200Z" fill="#352748" stroke="#352748"></path><path d="M471 272L461 203L401 200Z" fill="#111827" stroke="#111827"></path><path d="M401 200L335 302L433 309Z" fill="#b93c4c" stroke="#b93c4c"></path><path d="M401 200L274 207L335 302Z" fill="#a33456" stroke="#a33456"></path><path d="M264 407L391 413L335 302Z" fill="#88305b" stroke="#88305b"></path><path d="M335 302L391 413L433 309Z" fill="#6b2e5a" stroke="#6b2e5a"></path><path d="M628 318L607 239L471 272Z" fill="#202039" stroke="#202039"></path><path d="M468 96L389 93L401 200Z" fill="#202039" stroke="#202039"></path><path d="M401 200L389 93L274 207Z" fill="#202039" stroke="#202039"></path><path d="M572 127L468 96L461 203Z" fill="#6b2e5a" stroke="#6b2e5a"></path><path d="M461 203L468 96L401 200Z" fill="#a33456" stroke="#a33456"></path><path d="M570 387L471 272L433 309Z" fill="#b93c4c" stroke="#b93c4c"></path><path d="M471 272L607 239L461 203Z" fill="#202039" stroke="#202039"></path><path d="M235 113L236 175L274 207Z" fill="#88305b" stroke="#88305b"></path><path d="M224 365L264 407L335 302Z" fill="#111827" stroke="#111827"></path><path d="M607 239L572 127L461 203Z" fill="#202039" stroke="#202039"></path><path d="M527 431L570 387L433 309Z" fill="#88305b" stroke="#88305b"></path><path d="M391 413L527 431L433 309Z" fill="#d97706" stroke="#d97706"></path><path d="M224 365L335 302L175 260Z" fill="#4f2b54" stroke="#4f2b54"></path><path d="M391 413L522 462L527 431Z" fill="#b93c4c" stroke="#b93c4c"></path><path d="M388 0L296 71L389 93Z" fill="#b93c4c" stroke="#b93c4c"></path><path d="M389 93L296 71L274 207Z" fill="#4f2b54" stroke="#4f2b54"></path><path d="M570 387L628 318L471 272Z" fill="#6b2e5a" stroke="#6b2e5a"></path><path d="M175 260L335 302L274 207Z" fill="#202039" stroke="#202039"></path><path d="M296 71L235 113L274 207Z" fill="#6b2e5a" stroke="#6b2e5a"></path><path d="M236 175L175 260L274 207Z" fill="#4f2b54" stroke="#4f2b54"></path><path d="M527 431L632 466L570 387Z" fill="#6b2e5a" stroke="#6b2e5a"></path><path d="M570 387L708 425L628 318Z" fill="#a33456" stroke="#a33456"></path><path d="M406 502L522 462L391 413Z" fill="#a33456" stroke="#a33456"></path><path d="M88 225L175 260L236 175Z" fill="#4f2b54" stroke="#4f2b54"></path><path d="M294 495L406 502L391 413Z" fill="#352748" stroke="#352748"></path><path d="M460 0L389 93L468 96Z" fill="#d97706" stroke="#d97706"></path><path d="M460 0L388 0L389 93Z" fill="#a33456" stroke="#a33456"></path><path d="M296 71L235 0L235 113Z" fill="#88305b" stroke="#88305b"></path><path d="M586 0L460 0L468 96Z" fill="#111827" stroke="#111827"></path><path d="M628 318L677 228L607 239Z" fill="#4f2b54" stroke="#4f2b54"></path><path d="M607 239L677 228L572 127Z" fill="#4f2b54" stroke="#4f2b54"></path><path d="M572 127L586 0L468 96Z" fill="#352748" stroke="#352748"></path><path d="M167 481L294 495L264 407Z" fill="#cb4b3d" stroke="#cb4b3d"></path><path d="M264 407L294 495L391 413Z" fill="#d65f2a" stroke="#d65f2a"></path><path d="M388 0L264 0L296 71Z" fill="#88305b" stroke="#88305b"></path><path d="M88 225L122 324L175 260Z" fill="#352748" stroke="#352748"></path><path d="M522 462L632 466L527 431Z" fill="#202039" stroke="#202039"></path><path d="M628 318L719 265L677 228Z" fill="#a33456" stroke="#a33456"></path><path d="M596 600L632 466L522 462Z" fill="#202039" stroke="#202039"></path><path d="M708 425L719 265L628 318Z" fill="#a33456" stroke="#a33456"></path><path d="M724 129L586 0L572 127Z" fill="#cb4b3d" stroke="#cb4b3d"></path><path d="M175 260L122 324L224 365Z" fill="#6b2e5a" stroke="#6b2e5a"></path><path d="M224 365L167 481L264 407Z" fill="#111827" stroke="#111827"></path><path d="M88 225L236 175L83 84Z" fill="#d65f2a" stroke="#d65f2a"></path><path d="M724 129L572 127L677 228Z" fill="#352748" stroke="#352748"></path><path d="M264 0L235 0L296 71Z" fill="#4f2b54" stroke="#4f2b54"></path><path d="M83 84L236 175L235 113Z" fill="#b93c4c" stroke="#b93c4c"></path><path d="M785 205L724 129L677 228Z" fill="#352748" stroke="#352748"></path><path d="M0 321L100 365L122 324Z" fill="#d97706" stroke="#d97706"></path><path d="M122 324L100 365L224 365Z" fill="#d65f2a" stroke="#d65f2a"></path><path d="M632 466L708 425L570 387Z" fill="#88305b" stroke="#88305b"></path><path d="M100 365L167 481L224 365Z" fill="#d97706" stroke="#d97706"></path><path d="M304 600L421 600L406 502Z" fill="#d97706" stroke="#d97706"></path><path d="M406 502L502 600L522 462Z" fill="#4f2b54" stroke="#4f2b54"></path><path d="M632 466L675 513L708 425Z" fill="#352748" stroke="#352748"></path><path d="M304 600L406 502L294 495Z" fill="#a33456" stroke="#a33456"></path><path d="M421 600L502 600L406 502Z" fill="#202039" stroke="#202039"></path><path d="M204 600L304 600L294 495Z" fill="#4f2b54" stroke="#4f2b54"></path><path d="M596 600L675 513L632 466Z" fill="#6b2e5a" stroke="#6b2e5a"></path><path d="M837 337L785 205L719 265Z" fill="#a33456" stroke="#a33456"></path><path d="M719 265L785 205L677 228Z" fill="#b93c4c" stroke="#b93c4c"></path><path d="M235 0L83 84L235 113Z" fill="#b93c4c" stroke="#b93c4c"></path><path d="M785 205L780 138L724 129Z" fill="#88305b" stroke="#88305b"></path><path d="M724 129L719 0L586 0Z" fill="#cb4b3d" stroke="#cb4b3d"></path><path d="M502 600L596 600L522 462Z" fill="#cb4b3d" stroke="#cb4b3d"></path><path d="M769 499L788 376L708 425Z" fill="#b93c4c" stroke="#b93c4c"></path><path d="M708 425L788 376L719 265Z" fill="#b93c4c" stroke="#b93c4c"></path><path d="M797 0L719 0L724 129Z" fill="#202039" stroke="#202039"></path><path d="M111 600L204 600L167 481Z" fill="#cb4b3d" stroke="#cb4b3d"></path><path d="M167 481L204 600L294 495Z" fill="#202039" stroke="#202039"></path><path d="M0 408L64 484L100 365Z" fill="#d65f2a" stroke="#d65f2a"></path><path d="M100 365L64 484L167 481Z" fill="#111827" stroke="#111827"></path><path d="M0 321L122 324L88 225Z" fill="#6b2e5a" stroke="#6b2e5a"></path><path d="M0 188L0 321L88 225Z" fill="#352748" stroke="#352748"></path><path d="M83 84L0 188L88 225Z" fill="#352748" stroke="#352748"></path><path d="M235 0L75 0L83 84Z" fill="#d65f2a" stroke="#d65f2a"></path><path d="M83 84L0 98L0 188Z" fill="#a33456" stroke="#a33456"></path><path d="M788 376L837 337L719 265Z" fill="#cb4b3d" stroke="#cb4b3d"></path><path d="M785 205L900 235L780 138Z" fill="#cb4b3d" stroke="#cb4b3d"></path><path d="M900 360L837 337L788 376Z" fill="#4f2b54" stroke="#4f2b54"></path><path d="M769 499L708 425L675 513Z" fill="#202039" stroke="#202039"></path><path d="M732 600L769 499L675 513Z" fill="#6b2e5a" stroke="#6b2e5a"></path><path d="M0 321L0 408L100 365Z" fill="#202039" stroke="#202039"></path><path d="M0 0L0 98L83 84Z" fill="#111827" stroke="#111827"></path><path d="M900 68L797 0L780 138Z" fill="#352748" stroke="#352748"></path><path d="M780 138L797 0L724 129Z" fill="#d65f2a" stroke="#d65f2a"></path><path d="M64 484L111 600L167 481Z" fill="#352748" stroke="#352748"></path><path d="M0 600L111 600L64 484Z" fill="#b93c4c" stroke="#b93c4c"></path><path d="M596 600L732 600L675 513Z" fill="#111827" stroke="#111827"></path><path d="M900 281L785 205L837 337Z" fill="#4f2b54" stroke="#4f2b54"></path><path d="M900 281L837 337L900 360Z" fill="#4f2b54" stroke="#4f2b54"></path><path d="M900 281L900 235L785 205Z" fill="#d97706" stroke="#d97706"></path><path d="M900 360L788 376L900 532Z" fill="#4f2b54" stroke="#4f2b54"></path><path d="M0 408L0 505L64 484Z" fill="#d65f2a" stroke="#d65f2a"></path><path d="M75 0L0 0L83 84Z" fill="#d97706" stroke="#d97706"></path><path d="M900 532L788 376L769 499Z" fill="#b93c4c" stroke="#b93c4c"></path><path d="M900 235L900 68L780 138Z" fill="#88305b" stroke="#88305b"></path><path d="M732 600L803 600L769 499Z" fill="#88305b" stroke="#88305b"></path><path d="M0 505L0 600L64 484Z" fill="#d65f2a" stroke="#d65f2a"></path><path d="M900 68L900 0L797 0Z" fill="#202039" stroke="#202039"></path><path d="M803 600L900 532L769 499Z" fill="#4f2b54" stroke="#4f2b54"></path><path d="M803 600L900 600L900 532Z" fill="#b93c4c" stroke="#b93c4c"></path></g></svg>