<svg id="visual" viewBox="0 0 1920 1080" width="1920" height="1080" xmlns="http://www.w3.org/2000/svg" xmlns:xlink="http://www.w3.org/1999/xlink" version="1.1"><path d="M0 55L18.8 67.7C37.7 80.3 75.3 105.7 113 127.3C150.7 149 188.3 167 226 170.5C263.7 174 301.3 163 339 163C376.7 163 414.3 174 452 181.2C489.7 188.3 527.3 191.7 565 171.8C602.7 152 640.3 109 678 89.3C715.7 69.7 753.3 73.3 791 94.8C828.7 116.3 866.3 155.7 903.8 175.3C941.3 195 978.7 195 1016.2 196.8C1053.7 198.7 1091.3 202.3 1129 179C1166.7 155.7 1204.3 105.3 1242 91C1279.7 76.7 1317.3 98.3 1355 127.2C1392.7 156 1430.3 192 1468 184.8C1505.7 177.7 1543.3 127.3 1581 96.7C1618.7 66 1656.3 55 1694 46C1731.7 37 1769.3 30 1807 57C1844.7 84 1882.3 145 1901.2 175.5L1920 206L1920 0L1901.2 0C1882.3 0 1844.7 0 1807 0C1769.3 0 1731.7 0 1694 0C1656.3 0 1618.7 0 1581 0C1543.3 0 1505.7 0 1468 0C1430.3 0 1392.7 0 1355 0C1317.3 0 1279.7 0 1242 0C1204.3 0 1166.7 0 1129 0C1091.3 0 1053.7 0 1016.2 0C978.7 0 941.3 0 903.8 0C866.3 0 828.7 0 791 0C753.3 0 715.7 0 678 0C640.3 0 602.7 0 565 0C527.3 0 489.7 0 452 0C414.3 0 376.7 0 339 0C301.3 0 263.7 0 226 0C188.3 0 150.7 0 113 0C75.3 0 37.7 0 18.8 0L0 0Z" fill="#394a67"></path><path d="M0 120L18.8 136.2C37.7 152.3 75.3 184.7 113 233.2C150.7 281.7 188.3 346.3 226 359C263.7 371.7 301.3 332.3 339 319.8C376.7 307.3 414.3 321.7 452 336C489.7 350.3 527.3 364.7 565 362.8C602.7 361 640.3 343 678 326.8C715.7 310.7 753.3 296.3 791 303.5C828.7 310.7 866.3 339.3 903.8 332.2C941.3 325 978.7 282 1016.2 276.7C1053.7 271.3 1091.3 303.7 1129 314.3C1166.7 325 1204.3 314 1242 297.8C1279.7 281.7 1317.3 260.3 1355 278.3C1392.7 296.3 1430.3 353.7 1468 353.7C1505.7 353.7 1543.3 296.3 1581 283.8C1618.7 271.3 1656.3 303.7 1694 278.3C1731.7 253 1769.3 170 1807 173.5C1844.7 177 1882.3 267 1901.2 312L1920 357L1920 204L1901.2 173.5C1882.3 143 1844.7 82 1807 55C1769.3 28 1731.7 35 1694 44C1656.3 53 1618.7 64 1581 94.7C1543.3 125.3 1505.7 175.7 1468 182.8C1430.3 190 1392.7 154 1355 125.2C1317.3 96.3 1279.7 74.7 1242 89C1204.3 103.3 1166.7 153.7 1129 177C1091.3 200.3 1053.7 196.7 1016.2 194.8C978.7 193 941.3 193 903.8 173.3C866.3 153.7 828.7 114.3 791 92.8C753.3 71.3 715.7 67.7 678 87.3C640.3 107 602.7 150 565 169.8C527.3 189.7 489.7 186.3 452 179.2C414.3 172 376.7 161 339 161C301.3 161 263.7 172 226 168.5C188.3 165 150.7 147 113 125.3C75.3 103.7 37.7 78.3 18.8 65.7L0 53Z" fill="#32415b"></path><path d="M0 552L18.8 564.5C37.7 577 75.3 602 113 614.5C150.7 627 188.3 627 226 641.5C263.7 656 301.3 685 339 679.7C376.7 674.3 414.3 634.7 452 593.2C489.7 551.7 527.3 508.3 565 560.5C602.7 612.7 640.3 760.3 678 796.3C715.7 832.3 753.3 756.7 791 691.8C828.7 627 866.3 573 903.8 567.7C941.3 562.3 978.7 605.7 1016.2 645.3C1053.7 685 1091.3 721 1129 685C1166.7 649 1204.3 541 1242 476.2C1279.7 411.3 1317.3 389.7 1355 452.7C1392.7 515.7 1430.3 663.3 1468 726.3C1505.7 789.3 1543.3 767.7 1581 722.7C1618.7 677.7 1656.3 609.3 1694 575.2C1731.7 541 1769.3 541 1807 528.3C1844.7 515.7 1882.3 490.3 1901.2 477.7L1920 465L1920 355L1901.2 310C1882.3 265 1844.7 175 1807 171.5C1769.3 168 1731.7 251 1694 276.3C1656.3 301.7 1618.7 269.3 1581 281.8C1543.3 294.3 1505.7 351.7 1468 351.7C1430.3 351.7 1392.7 294.3 1355 276.3C1317.3 258.3 1279.7 279.7 1242 295.8C1204.3 312 1166.7 323 1129 312.3C1091.3 301.7 1053.7 269.3 1016.2 274.7C978.7 280 941.3 323 903.8 330.2C866.3 337.3 828.7 308.7 791 301.5C753.3 294.3 715.7 308.7 678 324.8C640.3 341 602.7 359 565 360.8C527.3 362.7 489.7 348.3 452 334C414.3 319.7 376.7 305.3 339 317.8C301.3 330.3 263.7 369.7 226 357C188.3 344.3 150.7 279.7 113 231.2C75.3 182.7 37.7 150.3 18.8 134.2L0 118Z" fill="#2b3950"></path><path d="M0 833L18.8 856.3C37.7 879.7 75.3 926.3 113 946C150.7 965.7 188.3 958.3 226 931.3C263.7 904.3 301.3 857.7 339 827.2C376.7 796.7 414.3 782.3 452 789.5C489.7 796.7 527.3 825.3 565 868.5C602.7 911.7 640.3 969.3 678 964C715.7 958.7 753.3 890.3 791 876C828.7 861.7 866.3 901.3 903.8 908.5C941.3 915.7 978.7 890.3 1016.2 877.7C1053.7 865 1091.3 865 1129 847C1166.7 829 1204.3 793 1242 767.8C1279.7 742.7 1317.3 728.3 1355 760.7C1392.7 793 1430.3 872 1468 909.8C1505.7 947.7 1543.3 944.3 1581 928.2C1618.7 912 1656.3 883 1694 839.7C1731.7 796.3 1769.3 738.7 1807 765.7C1844.7 792.7 1882.3 904.3 1901.2 960.2L1920 1016L1920 463L1901.2 475.7C1882.3 488.3 1844.7 513.7 1807 526.3C1769.3 539 1731.7 539 1694 573.2C1656.3 607.3 1618.7 675.7 1581 720.7C1543.3 765.7 1505.7 787.3 1468 724.3C1430.3 661.3 1392.7 513.7 1355 450.7C1317.3 387.7 1279.7 409.3 1242 474.2C1204.3 539 1166.7 647 1129 683C1091.3 719 1053.7 683 1016.2 643.3C978.7 603.7 941.3 560.3 903.8 565.7C866.3 571 828.7 625 791 689.8C753.3 754.7 715.7 830.3 678 794.3C640.3 758.3 602.7 610.7 565 558.5C527.3 506.3 489.7 549.7 452 591.2C414.3 632.7 376.7 672.3 339 677.7C301.3 683 263.7 654 226 639.5C188.3 625 150.7 625 113 612.5C75.3 600 37.7 575 18.8 562.5L0 550Z" fill="#243145"></path><path d="M0 1081L18.8 1081C37.7 1081 75.3 1081 113 1081C150.7 1081 188.3 1081 226 1081C263.7 1081 301.3 1081 339 1081C376.7 1081 414.3 1081 452 1081C489.7 1081 527.3 1081 565 1081C602.7 1081 640.3 1081 678 1081C715.7 1081 753.3 1081 791 1081C828.7 1081 866.3 1081 903.8 1081C941.3 1081 978.7 1081 1016.2 1081C1053.7 1081 1091.3 1081 1129 1081C1166.7 1081 1204.3 1081 1242 1081C1279.7 1081 1317.3 1081 1355 1081C1392.7 1081 1430.3 1081 1468 1081C1505.7 1081 1543.3 1081 1581 1081C1618.7 1081 1656.3 1081 1694 1081C1731.7 1081 1769.3 1081 1807 1081C1844.7 1081 1882.3 1081 1901.2 1081L1920 1081L1920 1014L1901.2 958.2C1882.3 902.3 1844.7 790.7 1807 763.7C1769.3 736.7 1731.7 794.3 1694 837.7C1656.3 881 1618.7 910 1581 926.2C1543.3 942.3 1505.7 945.7 1468 907.8C1430.3 870 1392.7 791 1355 758.7C1317.3 726.3 1279.7 740.7 1242 765.8C1204.3 791 1166.7 827 1129 845C1091.3 863 1053.7 863 1016.2 875.7C978.7 888.3 941.3 913.7 903.8 906.5C866.3 899.3 828.7 859.7 791 874C753.3 888.3 715.7 956.7 678 962C640.3 967.3 602.7 909.7 565 866.5C527.3 823.3 489.7 794.7 452 787.5C414.3 780.3 376.7 794.7 339 825.2C301.3 855.7 263.7 902.3 226 929.3C188.3 956.3 150.7 963.7 113 944C75.3 924.3 37.7 877.7 18.8 854.3L0 831Z" fill="#1e293b"></path></svg>