<svg id="visual" viewBox="0 0 1920 1080" width="1920" height="1080" xmlns="http://www.w3.org/2000/svg" xmlns:xlink="http://www.w3.org/1999/xlink" version="1.1"><path d="M0 66L274 66L274 206L549 206L549 271L823 271L823 98L1097 98L1097 228L1371 228L1371 260L1646 260L1646 66L1920 66L1920 401L1920 0L1920 0L1646 0L1646 0L1371 0L1371 0L1097 0L1097 0L823 0L823 0L549 0L549 0L274 0L274 0L0 0Z" fill="#44403c"></path><path d="M0 109L274 109L274 314L549 314L549 357L823 357L823 152L1097 152L1097 260L1371 260L1371 368L1646 368L1646 109L1920 109L1920 498L1920 399L1920 64L1646 64L1646 258L1371 258L1371 226L1097 226L1097 96L823 96L823 269L549 269L549 204L274 204L274 64L0 64Z" fill="#3e3a36"></path><path d="M0 271L274 271L274 411L549 411L549 368L823 368L823 303L1097 303L1097 314L1371 314L1371 498L1646 498L1646 206L1920 206L1920 519L1920 496L1920 107L1646 107L1646 366L1371 366L1371 258L1097 258L1097 150L823 150L823 355L549 355L549 312L274 312L274 107L0 107Z" fill="#383431"></path><path d="M0 282L274 282L274 465L549 465L549 519L823 519L823 390L1097 390L1097 347L1371 347L1371 649L1646 649L1646 228L1920 228L1920 563L1920 517L1920 204L1646 204L1646 496L1371 496L1371 312L1097 312L1097 301L823 301L823 366L549 366L549 409L274 409L274 269L0 269Z" fill="#322f2c"></path><path d="M0 617L274 617L274 671L549 671L549 692L823 692L823 714L1097 714L1097 530L1371 530L1371 854L1646 854L1646 671L1920 671L1920 811L1920 561L1920 226L1646 226L1646 647L1371 647L1371 345L1097 345L1097 388L823 388L823 517L549 517L549 463L274 463L274 280L0 280Z" fill="#2c2926"></path><path d="M0 692L274 692L274 768L549 768L549 746L823 746L823 768L1097 768L1097 649L1371 649L1371 908L1646 908L1646 746L1920 746L1920 887L1920 809L1920 669L1646 669L1646 852L1371 852L1371 528L1097 528L1097 712L823 712L823 690L549 690L549 669L274 669L274 615L0 615Z" fill="#272421"></path><path d="M0 843L274 843L274 930L549 930L549 843L823 843L823 833L1097 833L1097 833L1371 833L1371 984L1646 984L1646 811L1920 811L1920 1027L1920 885L1920 744L1646 744L1646 906L1371 906L1371 647L1097 647L1097 766L823 766L823 744L549 744L549 766L274 766L274 690L0 690Z" fill="#211e1c"></path><path d="M0 1081L274 1081L274 1081L549 1081L549 1081L823 1081L823 1081L1097 1081L1097 1081L1371 1081L1371 1081L1646 1081L1646 1081L1920 1081L1920 1081L1920 1025L1920 809L1646 809L1646 982L1371 982L1371 831L1097 831L1097 831L823 831L823 841L549 841L549 928L274 928L274 841L0 841Z" fill="#1c1917"></path></svg>