<svg id="visual" viewBox="0 0 1920 1080" width="1920" height="1080" xmlns="http://www.w3.org/2000/svg" xmlns:xlink="http://www.w3.org/1999/xlink" version="1.1"><rect x="0" y="0" width="1920" height="1080" fill="#171717"></rect><path d="M0 15L83 72L167 156L250 161L334 154L417 44L501 205L584 32L668 181L751 127L835 19L918 131L1002 135L1085 201L1169 173L1252 6L1336 89L1419 184L1503 90L1586 106L1670 198L1753 109L1837 141L1920 44L1920 0L1837 0L1753 0L1670 0L1586 0L1503 0L1419 0L1336 0L1252 0L1169 0L1085 0L1002 0L918 0L835 0L751 0L668 0L584 0L501 0L417 0L334 0L250 0L167 0L83 0L0 0Z" fill="#169046"></path><path d="M0 102L83 42L167 5L250 145L334 79L417 167L501 5L584 2L668 46L751 6L835 184L918 40L1002 188L1085 95L1169 185L1252 145L1336 4L1419 104L1503 16L1586 150L1670 29L1753 161L1837 85L1920 167L1920 0L1837 0L1753 0L1670 0L1586 0L1503 0L1419 0L1336 0L1252 0L1169 0L1085 0L1002 0L918 0L835 0L751 0L668 0L584 0L501 0L417 0L334 0L250 0L167 0L83 0L0 0Z" fill="#199d4c"></path><path d="M0 123L83 77L167 165L250 82L334 6L417 32L501 82L584 95L668 95L751 73L835 166L918 56L1002 102L1085 34L1169 9L1252 115L1336 157L1419 71L1503 46L1586 59L1670 146L1753 171L1837 17L1920 6L1920 0L1837 0L1753 0L1670 0L1586 0L1503 0L1419 0L1336 0L1252 0L1169 0L1085 0L1002 0L918 0L835 0L751 0L668 0L584 0L501 0L417 0L334 0L250 0L167 0L83 0L0 0Z" fill="#1baa52"></path><path d="M0 57L83 16L167 20L250 101L334 30L417 29L501 85L584 53L668 90L751 95L835 37L918 37L1002 113L1085 107L1169 149L1252 145L1336 23L1419 57L1503 101L1586 1L1670 136L1753 114L1837 104L1920 146L1920 0L1837 0L1753 0L1670 0L1586 0L1503 0L1419 0L1336 0L1252 0L1169 0L1085 0L1002 0L918 0L835 0L751 0L668 0L584 0L501 0L417 0L334 0L250 0L167 0L83 0L0 0Z" fill="#1fb758"></path><path d="M0 39L83 71L167 33L250 73L334 120L417 93L501 105L584 101L668 103L751 85L835 18L918 74L1002 11L1085 40L1169 3L1252 67L1336 48L1419 66L1503 53L1586 30L1670 49L1753 69L1837 8L1920 17L1920 0L1837 0L1753 0L1670 0L1586 0L1503 0L1419 0L1336 0L1252 0L1169 0L1085 0L1002 0L918 0L835 0L751 0L668 0L584 0L501 0L417 0L334 0L250 0L167 0L83 0L0 0Z" fill="#22c55e"></path><path d="M0 15L83 54L167 87L250 87L334 3L417 91L501 63L584 49L668 79L751 52L835 100L918 75L1002 75L1085 62L1169 69L1252 76L1336 22L1419 35L1503 20L1586 72L1670 48L1753 12L1837 77L1920 101L1920 0L1837 0L1753 0L1670 0L1586 0L1503 0L1419 0L1336 0L1252 0L1169 0L1085 0L1002 0L918 0L835 0L751 0L668 0L584 0L501 0L417 0L334 0L250 0L167 0L83 0L0 0Z" fill="#3aca6a"></path><path d="M0 83L83 40L167 22L250 73L334 38L417 0L501 75L584 54L668 63L751 63L835 22L918 14L1002 38L1085 34L1169 74L1252 16L1336 11L1419 44L1503 48L1586 28L1670 80L1753 30L1837 60L1920 70L1920 0L1837 0L1753 0L1670 0L1586 0L1503 0L1419 0L1336 0L1252 0L1169 0L1085 0L1002 0L918 0L835 0L751 0L668 0L584 0L501 0L417 0L334 0L250 0L167 0L83 0L0 0Z" fill="#4dce76"></path><path d="M0 36L83 44L167 11L250 9L334 15L417 3L501 1L584 35L668 39L751 25L835 43L918 22L1002 37L1085 23L1169 50L1252 59L1336 61L1419 39L1503 35L1586 13L1670 9L1753 4L1837 8L1920 61L1920 0L1837 0L1753 0L1670 0L1586 0L1503 0L1419 0L1336 0L1252 0L1169 0L1085 0L1002 0L918 0L835 0L751 0L668 0L584 0L501 0L417 0L334 0L250 0L167 0L83 0L0 0Z" fill="#5cd382"></path><path d="M0 19L83 21L167 7L250 19L334 34L417 18L501 24L584 23L668 21L751 12L835 17L918 29L1002 16L1085 38L1169 38L1252 40L1336 9L1419 29L1503 14L1586 22L1670 11L1753 42L1837 15L1920 15L1920 0L1837 0L1753 0L1670 0L1586 0L1503 0L1419 0L1336 0L1252 0L1169 0L1085 0L1002 0L918 0L835 0L751 0L668 0L584 0L501 0L417 0L334 0L250 0L167 0L83 0L0 0Z" fill="#6bd78d"></path></svg>