<svg id="visual" viewBox="0 0 1920 1080" width="1920" height="1080" xmlns="http://www.w3.org/2000/svg" xmlns:xlink="http://www.w3.org/1999/xlink" version="1.1"><rect x="0" y="0" width="1920" height="1080" fill="#e5e5e5"></rect><path d="M1894 1080L1577 960L1569 840L1750 720L1811 600L1872 480L1631 360L1569 240L1597 120L1543 0L1920 0L1920 120L1920 240L1920 360L1920 480L1920 600L1920 720L1920 840L1920 960L1920 1080Z" fill="#ef4444"></path><path d="M1802 1080L1645 960L1777 840L1901 720L1671 600L1830 480L1663 360L1756 240L1736 120L1750 0L1920 0L1920 120L1920 240L1920 360L1920 480L1920 600L1920 720L1920 840L1920 960L1920 1080Z" fill="#c3312f"></path><path d="M1735 1080L1899 960L1874 840L1895 720L1770 600L1739 480L1705 360L1917 240L1886 120L1872 0L1920 0L1920 120L1920 240L1920 360L1920 480L1920 600L1920 720L1920 840L1920 960L1920 1080Z" fill="#991d1b"></path><path d="M1792 1080L1845 960L1836 840L1853 720L1882 600L1824 480L1890 360L1849 240L1830 120L1906 0L1920 0L1920 120L1920 240L1920 360L1920 480L1920 600L1920 720L1920 840L1920 960L1920 1080Z" fill="#720808"></path></svg>