<svg id="visual" viewBox="0 0 1920 1080" width="1920" height="1080" xmlns="http://www.w3.org/2000/svg" xmlns:xlink="http://www.w3.org/1999/xlink" version="1.1"><rect x="0" y="0" width="1920" height="1080" fill="#e5e5e5"></rect><path d="M561 0L657 60L565 120L666 180L474 240L487 300L644 360L562 420L651 480L684 540L467 600L556 660L671 720L453 780L549 840L537 900L530 960L624 1020L464 1080L0 1080L0 1020L0 960L0 900L0 840L0 780L0 720L0 660L0 600L0 540L0 480L0 420L0 360L0 300L0 240L0 180L0 120L0 60L0 0Z" fill="#ef4444"></path><path d="M479 0L376 60L495 120L482 180L378 240L353 300L455 360L456 420L372 480L556 540L562 600L510 660L552 720L534 780L414 840L409 900L364 960L360 1020L513 1080L0 1080L0 1020L0 960L0 900L0 840L0 780L0 720L0 660L0 600L0 540L0 480L0 420L0 360L0 300L0 240L0 180L0 120L0 60L0 0Z" fill="#f4736a"></path><path d="M363 0L398 60L372 120L267 180L249 240L429 300L406 360L322 420L415 480L396 540L415 600L300 660L341 720L427 780L413 840L340 900L274 960L408 1020L374 1080L0 1080L0 1020L0 960L0 900L0 840L0 780L0 720L0 660L0 600L0 540L0 480L0 420L0 360L0 300L0 240L0 180L0 120L0 60L0 0Z" fill="#f59b91"></path><path d="M248 0L170 60L152 120L218 180L185 240L243 300L181 360L291 420L293 480L234 540L174 600L221 660L187 720L217 780L158 840L321 900L268 960L218 1020L194 1080L0 1080L0 1020L0 960L0 900L0 840L0 780L0 720L0 660L0 600L0 540L0 480L0 420L0 360L0 300L0 240L0 180L0 120L0 60L0 0Z" fill="#f1c0ba"></path><path d="M129 0L74 60L200 120L195 180L150 240L162 300L132 360L82 420L168 480L176 540L137 600L114 660L116 720L161 780L63 840L64 900L206 960L140 1020L195 1080L0 1080L0 1020L0 960L0 900L0 840L0 780L0 720L0 660L0 600L0 540L0 480L0 420L0 360L0 300L0 240L0 180L0 120L0 60L0 0Z" fill="#e5e5e5"></path></svg>