<svg id="visual" viewBox="0 0 900 600" width="900" height="600" xmlns="http://www.w3.org/2000/svg" xmlns:xlink="http://www.w3.org/1999/xlink" version="1.1"><path d="M0 211L82 67L164 229L245 229L327 247L409 139L491 163L573 115L655 85L736 217L818 85L900 145L900 0L818 0L736 0L655 0L573 0L491 0L409 0L327 0L245 0L164 0L82 0L0 0Z" fill="#2a809f"></path><path d="M0 283L82 211L164 301L245 301L327 421L409 205L491 301L573 253L655 247L736 331L818 235L900 289L900 143L818 83L736 215L655 83L573 113L491 161L409 137L327 245L245 227L164 227L82 65L0 209Z" fill="#25738f"></path><path d="M0 319L82 277L164 355L245 349L327 457L409 277L491 373L573 337L655 289L736 421L818 289L900 337L900 287L818 233L736 329L655 245L573 251L491 299L409 203L327 419L245 299L164 299L82 209L0 281Z" fill="#206680"></path><path d="M0 445L82 391L164 433L245 397L327 505L409 385L491 475L573 385L655 361L736 505L818 373L900 427L900 335L818 287L736 419L655 287L573 335L491 371L409 275L327 455L245 347L164 353L82 275L0 317Z" fill="#1b5a71"></path><path d="M0 601L82 601L164 601L245 601L327 601L409 601L491 601L573 601L655 601L736 601L818 601L900 601L900 425L818 371L736 503L655 359L573 383L491 473L409 383L327 503L245 395L164 431L82 389L0 443Z" fill="#164e63"></path></svg>