<svg id="visual" viewBox="0 0 900 600" width="900" height="600" xmlns="http://www.w3.org/2000/svg" xmlns:xlink="http://www.w3.org/1999/xlink" version="1.1"><path d="M0 91L82 247L164 265L245 157L327 109L409 193L491 223L573 127L655 157L736 217L818 85L900 217L900 0L818 0L736 0L655 0L573 0L491 0L409 0L327 0L245 0L164 0L82 0L0 0Z" fill="#f87171"></path><path d="M0 157L82 301L164 337L245 241L327 205L409 241L491 307L573 175L655 241L736 319L818 121L900 259L900 215L818 83L736 215L655 155L573 125L491 221L409 191L327 107L245 155L164 263L82 245L0 89Z" fill="#e15c5a"></path><path d="M0 367L82 397L164 457L245 373L327 367L409 481L491 433L573 361L655 415L736 475L818 349L900 373L900 257L818 119L736 317L655 239L573 173L491 305L409 239L327 203L245 239L164 335L82 299L0 155Z" fill="#c94744"></path><path d="M0 475L82 499L164 553L245 511L327 493L409 553L491 481L573 517L655 505L736 553L818 469L900 535L900 371L818 347L736 473L655 413L573 359L491 431L409 479L327 365L245 371L164 455L82 395L0 365Z" fill="#b1322f"></path><path d="M0 601L82 601L164 601L245 601L327 601L409 601L491 601L573 601L655 601L736 601L818 601L900 601L900 533L818 467L736 551L655 503L573 515L491 479L409 551L327 491L245 509L164 551L82 497L0 473Z" fill="#991b1b"></path></svg>